<svg xmlns="http://www.w3.org/2000/svg" xmlns:svg="http://www.w3.org/2000/svg" id="svg2" width="304.271" height="94.563" version="1.1" viewBox="0 0 304.271 94.563" xml:space="preserve"><metadata id="metadata8"/><defs id="defs6"><clipPath id="clipPath18" clipPathUnits="userSpaceOnUse"><path id="path16" d="M 0,70.922 H 228.203 V 0 H 0 Z"/></clipPath></defs><g id="g10" transform="matrix(1.3333333,0,0,-1.3333333,0,94.5628)"><g id="g12"><g id="g14" clip-path="url(#clipPath18)"><g id="g20" transform="translate(2e-4,27.1296)"><path id="path22" d="m 0,0 c 0,16.007 10.74,27.152 26.038,27.152 10.332,0 18.742,-5.169 22.083,-13.17 0.408,-0.808 0.507,-1.518 0.507,-2.33 0,-1.823 -1.419,-3.04 -3.242,-3.04 -1.418,0 -2.631,0.812 -3.241,2.433 C 39.513,17.529 33.537,21.278 26.038,21.278 14.588,21.278 6.587,12.563 6.587,0 c 0,-12.461 7.902,-21.172 19.451,-21.172 7.499,0 13.17,3.647 16.21,11.244 0.606,1.522 1.621,2.434 3.138,2.434 1.823,0 3.242,-1.419 3.242,-3.242 0,-0.71 -0.099,-1.217 -0.404,-2.128 C 44.982,-21.576 36.675,-27.148 26.038,-27.148 10.637,-27.148 0,-16.004 0,0" style="fill:#231f20;fill-opacity:1;fill-rule:nonzero;stroke:none"/></g><g id="g24" transform="translate(86.8972,4.4362)"><path id="path26" d="m 0,0 c 0,-2.228 -1.217,-3.646 -3.341,-3.646 -2.128,0 -3.242,1.418 -3.242,3.646 l -0.002,62.836 c 0,2.33 1.217,3.65 3.345,3.65 2.128,0 3.242,-1.32 3.242,-3.65 V 48.529 h 11.336 c 2.025,0 3.242,-1.113 3.242,-2.936 0,-1.827 -1.217,-2.941 -3.242,-2.941 H 0.002 Z" style="fill:#231f20;fill-opacity:1;fill-rule:nonzero;stroke:none"/></g><g id="g28" transform="translate(137.6413,49.4186)"><path id="path30" d="m 0,0 c 0,-1.823 -1.319,-3.139 -3.241,-3.139 -0.71,0 -1.419,0.202 -2.434,0.709 -1.518,0.71 -3.138,1.114 -5.267,1.114 -6.992,0 -11.549,-6.08 -11.549,-13.78 v -29.886 c 0,-2.327 -1.113,-3.647 -3.242,-3.647 -2.128,0 -3.345,1.32 -3.345,3.647 V 0.404 c 0,2.33 1.217,3.65 3.345,3.65 2.129,0 3.242,-1.32 3.242,-3.65 v -1.316 c 2.838,3.749 7.292,5.775 12.259,5.775 3.847,0 6.582,-0.809 8.508,-2.026 C -0.61,2.128 0,1.216 0,0" style="fill:#231f20;fill-opacity:1;fill-rule:nonzero;stroke:none"/></g><g id="g32" transform="translate(144.323,49.8224)"><path id="path34" d="M 0,0 C 0,2.331 1.213,3.65 3.342,3.65 5.47,3.65 6.583,2.331 6.583,0 v -45.386 c 0,-2.228 -1.217,-3.647 -3.341,-3.647 -2.128,0 -3.242,1.419 -3.242,3.647 z" style="fill:#231f20;fill-opacity:1;fill-rule:nonzero;stroke:none"/></g><g id="g36" transform="translate(60.1965,49.8224)"><path id="path38" d="M 0,0 C 0,2.331 1.213,3.65 3.341,3.65 5.469,3.65 6.583,2.331 6.583,0 v -45.386 c 0,-2.228 -1.217,-3.647 -3.341,-3.647 -2.128,0 -3.242,1.419 -3.242,3.647 z" style="fill:#231f20;fill-opacity:1;fill-rule:nonzero;stroke:none"/></g><g id="g40" transform="translate(68.6623,65.7477)"><path id="path42" d="m 0,0 c 0,-2.857 -2.317,-5.174 -5.174,-5.174 -2.858,0 -5.175,2.317 -5.175,5.174 0,2.858 2.317,5.174 5.175,5.174 C -2.317,5.174 0,2.858 0,0" style="fill:#231f20;fill-opacity:1;fill-rule:nonzero;stroke:none"/></g><g id="g44" transform="translate(185.1433,23.0788)"><path id="path46" d="m 0,0 -17.932,-20.969 c -0.709,-0.916 -1.621,-1.32 -2.635,-1.32 -1.824,0 -3.139,1.419 -3.139,3.04 0,0.709 0.202,1.521 0.912,2.33 L -4.053,4.255 -22.085,24.921 c -0.709,0.812 -1.113,1.522 -1.113,2.433 0,1.621 1.315,3.04 3.241,3.04 1.011,0 1.721,-0.408 2.533,-1.32 L 0,8.612 17.424,29.074 c 0.812,0.912 1.522,1.32 2.533,1.32 1.926,0 3.241,-1.419 3.241,-3.04 0,-0.911 -0.404,-1.621 -1.113,-2.433 L 4.053,4.255 22.794,-16.919 c 0.71,-0.809 0.912,-1.621 0.912,-2.33 0,-1.621 -1.316,-3.04 -3.139,-3.04 -1.014,0 -1.926,0.404 -2.635,1.32 z" style="fill:#231f20;fill-opacity:1;fill-rule:nonzero;stroke:none"/></g><g id="g48" transform="translate(228.2029,6.9108)"><path id="path50" d="m 0,0 v -5.613 h -0.748 v 3.573 l 0.085,1.053 H -0.68 l -0.135,-0.425 -1.753,-4.201 h -0.579 l -1.752,4.201 -0.153,0.425 H -5.068 L -4.984,-2.04 V -5.613 H -5.733 V 0 h 0.936 l 1.666,-4.048 0.274,-0.697 h 0.016 L -2.603,-4.048 -0.901,0 Z m -6.788,-0.595 h -1.905 v -5.018 h -0.766 v 5.018 h -1.939 V 0 h 4.61 z" style="fill:#231f20;fill-opacity:1;fill-rule:nonzero;stroke:none"/></g><g id="g52" transform="translate(190.3171,65.7477)"><path id="path54" d="m 0,0 c 0,-2.857 -2.316,-5.174 -5.174,-5.174 -2.857,0 -5.175,2.317 -5.175,5.174 0,2.858 2.318,5.174 5.175,5.174 C -2.316,5.174 0,2.858 0,0" style="fill:#231f20;fill-opacity:1;fill-rule:nonzero;stroke:none"/></g></g></g></g></svg>