<svg xmlns="http://www.w3.org/2000/svg" xmlns:svg="http://www.w3.org/2000/svg" id="svg59" width="778.329" height="568.251" version="1.1" viewBox="0 0 205.933 150.35"><metadata id="metadata56"/><g id="layer1" transform="translate(-7.4274581,-4.5340899)"><polygon style="fill:#525c86" id="polygon148" points="51.2 44.5 51.2 27.3 27.2 41.1 3.2 27.3 3.2 44.5 27.2 58.4" class="st1" transform="matrix(1.9967633,0,0,1.9967633,51.626285,-1.4562)"/><polygon style="fill:#fdb940" id="polygon150" points="27.2 20.3 36.3 25.5 51.2 16.9 27.2 3 3.2 16.9 3.2 34.1" class="st2" transform="matrix(1.9967633,0,0,1.9967633,51.626285,-1.4562)"/><g id="g154" transform="matrix(1.1641176,0,0,1.1641176,-69.054159,97.491979)"><path style="fill:#000" id="path152" d="m 182.59961,17.962891 c -1.425,0.0875 -2.84922,0.43711 -4.19922,1.037109 -1.4,0.700001 -2.59961,1.600781 -3.59961,2.800781 -1,1.200001 -1.70117,2.500001 -2.20117,4 -1,3.100001 -1,6.499612 0,9.59961 0.5,1.500001 1.20117,2.8 2.20117,4 1,1.2 2.19961,2.098829 3.59961,2.798828 1.6,0.700001 3.3,1 5,1 1.3,0 2.70039,-0.19922 3.90039,-0.699219 1.2,-0.5 2.19961,-1.100002 3.09961,-2 0.9,-0.9 1.59961,-1.999608 2.09961,-3.099609 0.6,-1.3 0.99961,-2.699609 1.09961,-4.09961 h -2.29883 c -0.1,1.100001 -0.40078,2.099609 -0.80078,3.09961 -0.4,0.9 -0.89961,1.8 -1.59961,2.5 -0.7,0.700001 -1.50039,1.299218 -2.40039,1.699218 -1,0.399999 -1.99961,0.59961 -3.09961,0.59961 -1.5,0.1 -2.90117,-0.298439 -4.20117,-0.898438 -1.1,-0.5 -1.99883,-1.400391 -2.79883,-2.40039 -0.7,-1.100001 -1.29961,-2.300001 -1.59961,-3.5 -0.7,-2.5 -0.7,-5.20078 0,-7.800782 0.3,-1.2 0.79961,-2.400393 1.59961,-3.40039 0.7,-1.000001 1.69883,-1.798439 2.79883,-2.398438 1.3,-0.600001 2.80117,-0.90039 4.20117,-0.90039 0.8,0 1.7,0.10039 2.5,0.40039 0.8,0.199999 1.49922,0.599611 2.19922,1.09961 0.7,0.500002 1.20117,1.20039 1.70117,1.90039 0.5,0.799999 0.8,1.699609 1,2.59961 h 2.29883 c -0.1,-1.2 -0.49961,-2.40039 -1.09961,-3.400391 -0.5,-0.999999 -1.29922,-1.8 -2.19922,-2.5 -0.9,-0.700001 -1.9,-1.2 -3,-1.5 -1.35,-0.449999 -2.77617,-0.624609 -4.20117,-0.537109 z m -116.900391,0.4375 v 24.40039 h 17 v -2 H 68 v -9.601562 h 13.599609 v -2 H 68 v -8.798828 h 14.5 v -2 z m 35.601561,0 v 24.40039 H 103.5 v -24.40039 z m 5.69922,0 v 3.5 h 2.09961 v -3.5 z m 88.80078,0 v 24.40039 H 198 V 32.5 c 0,-0.8 0.10039,-1.600391 0.40039,-2.400391 0.2,-0.699999 0.59961,-1.300389 1.09961,-1.90039 0.5,-0.6 0.99922,-0.998828 1.69922,-1.298828 0.7,-0.4 1.50078,-0.5 2.30078,-0.5 0.8,0 1.49922,0.10039 2.19922,0.40039 0.6,0.199999 1.00039,0.599608 1.40039,1.09961 0.3,0.5 0.60117,1.099219 0.70117,1.699218 0.1,0.700001 0.19922,1.399609 0.19922,2.09961 v 11 h 2.19922 V 31.400391 c 0,-0.9 -0.0988,-1.900782 -0.29883,-2.800782 -0.2,-0.8 -0.59961,-1.499608 -1.09961,-2.099609 -0.5,-0.700001 -1.2,-1.100392 -2,-1.400391 -1,-0.400001 -2.00156,-0.5 -3.10156,-0.5 -1.3,0 -2.5,0.299999 -3.5,1 -1,0.599999 -1.79922,1.499611 -2.19922,2.59961 h -0.0996 v -9.798828 z m 40.19922,0.5 c -0.1,0 -0.0996,0.09922 -0.0996,0.199218 v 6.09961 0.101562 c 0.1,0.1 0.0996,0.1 0.0996,0 h 1.09961 0.0996 v -0.101562 -4.5 l 1.60156,4.5 c 0,0.1 0.0992,0.101562 0.19922,0.101562 h 0.59961 c 0.1,0 0.20117,-0.0016 0.20117,-0.101562 L 241.5,20.599609 v 4.5 0.09961 h 0.0996 0.90039 0.0996 V 25.099609 19 c 0,-0.1 3.9e-4,-0.09961 -0.0996,-0.09961 H 241 c -0.1,0 -0.19922,0.09922 -0.19922,0.199218 l -1.5,4 c 0,0.1 -0.10156,0.1 -0.10156,0 L 237.69922,19 c -0.1,0 -0.0996,-0.09961 -0.0996,-0.09961 H 237.5 Z M 229.90039,19 c -0.1,0 -0.0996,-3.91e-4 -0.0996,0.09961 l 0.0996,0.701172 c 0,0.1 -3.9e-4,0.09961 0.0996,0.09961 h 1.80078 c 0.1,0 0.0996,-3.91e-4 0.0996,0.09961 v 5.400391 c 0,0.1 -3.9e-4,0.09961 0.0996,0.09961 h 1 c 0.1,0 0.0996,-0.09922 0.0996,-0.199219 V 20 c 0,-0.1 -3.9e-4,-0.09961 0.0996,-0.09961 h 1.70117 c 0.1,0 0.0996,3.9e-4 0.0996,-0.09961 V 19.099609 C 235,18.999609 234.90078,19 234.80078,19 Z M 137,24.300781 c -0.7,0 -1.50078,0.09883 -2.30078,0.298828 -0.7,0.200001 -1.39961,0.500391 -2.09961,0.900391 -0.6,0.300001 -1.1,0.900001 -1.5,1.5 -0.4,0.700001 -0.59961,1.50078 -0.59961,2.300781 0,0.699998 0.10039,1.298437 0.40039,1.898438 0.2,0.5 0.6,0.900781 1,1.300781 0.4,0.4 0.9,0.70039 1.5,0.900391 0.7,0.199999 1.3,0.39961 2,0.599609 l 2.79883,0.699219 c 0.5,0.1 0.90039,0.200391 1.40039,0.40039 0.4,0.1 0.80117,0.29961 1.20117,0.59961 0.4,0.199999 0.69844,0.50039 0.89844,0.90039 0.2,0.4 0.30078,0.800782 0.30078,1.300782 0,0.5 -0.2,1 -0.5,1.5 -0.3,0.4 -0.69922,0.800001 -1.19922,1 -0.4,0.300001 -1,0.499609 -1.5,0.599609 -0.5,0.100001 -1.10156,0.199219 -1.60156,0.199219 -1.3,0.1 -2.59961,-0.299612 -3.59961,-1.09961 C 132.59961,39.299608 132,38.100783 132,36.800781 h -2.19922 c 0,1.800002 0.79922,3.49922 2.19922,4.699219 1.5,1.1 3.2,1.6 5,1.5 0.8,0 1.7,-0.10078 2.5,-0.300781 0.8,-0.199999 1.60078,-0.498438 2.30078,-0.898438 0.7,-0.4 1.29922,-0.901563 1.69922,-1.601562 0.5,-0.7 0.69922,-1.498438 0.69922,-2.398438 0.1,-0.7 -0.0984,-1.399999 -0.39844,-2 -0.2,-0.5 -0.60156,-1.00039 -1.10156,-1.40039 -0.5,-0.4 -0.99961,-0.70039 -1.59961,-0.900391 -0.6,-0.199999 -1.19883,-0.4 -1.79883,-0.5 l -2.90039,-0.599609 C 136.00039,32.300391 135.59922,32.1 135.19922,32 134.79922,31.800001 134.4,31.600392 134,31.400391 c -0.4,-0.199999 -0.70039,-0.500782 -0.90039,-0.800782 -0.3,-0.300001 -0.40039,-0.799219 -0.40039,-1.199218 0,-0.5 0.10039,-1.000391 0.40039,-1.400391 0.3,-0.299999 0.6,-0.70039 1,-0.900391 0.4,-0.199999 0.80078,-0.4 1.30078,-0.5 0.5,0 1,-0.09961 1.5,-0.09961 0.5,0 1.09922,0.09922 1.69922,0.199219 0.6,0.1 1.1,0.401174 1.5,0.701172 0.4,0.300001 0.8,0.699218 1,1.199218 0.3,0.599999 0.40117,1.100391 0.20117,1.400391 H 143.5 c 0,-0.899999 -0.19961,-1.7 -0.59961,-2.5 -0.3,-0.699999 -0.80039,-1.300781 -1.40039,-1.800781 -0.6,-0.499999 -1.3,-0.899609 -2,-1.09961 -0.8,-0.200001 -1.7,-0.298828 -2.5,-0.298828 z M 92.199219,24.5 c -1.300002,0 -2.49961,0.300782 -3.59961,0.800781 -1,0.5 -1.899609,1.2 -2.599609,2 -0.700001,0.9 -1.299608,1.900001 -1.599609,3 -0.699999,2.299999 -0.699999,4.899217 0,7.199219 0.300001,1.099999 0.899608,2.1 1.599609,3 0.7,0.799998 1.599609,1.5 2.599609,2 1.2,0.499999 2.399609,0.699219 3.59961,0.699219 1.799999,0 3.600388,-0.598828 4.90039,-1.798828 1.4,-1.299998 2.20039,-3.099999 2.400391,-5 h -2.199219 c 0,0.700001 -0.200002,1.399998 -0.5,2 C 96.50078,39.00039 96.199221,39.5 95.699219,40 c -0.499998,0.4 -0.999607,0.800002 -1.59961,1 -0.599999,0.3 -1.300391,0.400391 -1.90039,0.400391 -0.900002,0.100001 -1.89922,-0.199611 -2.699219,-0.59961 -0.700001,-0.4 -1.400391,-1.001173 -1.900391,-1.701172 -0.600001,-0.7 -0.999217,-1.50039 -1.199218,-2.40039 -0.5,-1.799999 -0.5,-3.7 0,-5.5 0.3,-0.9 0.699218,-1.698439 1.199218,-2.398438 C 88.099609,28.10078 88.7,27.499609 89.5,27.099609 90.299999,26.699609 91.299217,26.5 92.199219,26.5 c 1.199997,-0.1 2.400779,0.299609 3.300781,1.099609 0.8,0.9 1.399608,1.900392 1.599609,2.900391 h 2.201172 C 99.200781,28.800002 98.400001,27.100001 97,26 95.6,24.999999 93.899219,24.4 92.199219,24.5 Z m 61.201171,0 c -1.2,0 -2.49961,0.200782 -3.59961,0.800781 -1,0.5 -1.8,1.199611 -2.5,2.09961 -0.6,0.900002 -1.10039,1.900001 -1.40039,3 -0.3,1.1 -0.5,2.200389 -0.5,3.40039 0,1.2 0.2,2.39961 0.5,3.59961 0.3,1.100001 0.70039,2.1 1.40039,3 0.7,0.899998 1.5,1.5 2.5,2 1.1,0.5 2.39961,0.699218 3.59961,0.699218 1.9,0.199999 3.69922,-0.399608 5.19922,-1.599609 1.3,-1.2 2.2,-2.799608 2.5,-4.599609 h -2.19922 c -0.2,1.3 -0.90078,2.398828 -1.80078,3.298828 -1,0.799999 -2.39922,1.301172 -3.69922,1.201172 -0.9,0.100001 -1.79961,-0.09961 -2.59961,-0.59961 -0.7,-0.4 -1.30078,-0.901563 -1.80078,-1.601562 C 148.5,38.599218 148.2,37.8 148,37 c -0.2,-0.8 -0.30039,-1.599611 -0.40039,-2.599609 h 13.5 c 0.1,-1.2 0.001,-2.39961 -0.29883,-3.59961 C 160.60078,29.60078 160.1,28.599609 159.5,27.599609 158.1,25.599609 155.80039,24.4 153.40039,24.5 Z M 220.5,24.599609 c -1.2,0 -2.49961,0.200783 -3.59961,0.800782 -1,0.500001 -1.8,1.199607 -2.5,2.099609 -0.6,0.9 -1.10039,1.900001 -1.40039,3 -0.3,1.100001 -0.5,2.200391 -0.5,3.400391 0,1.199999 0.2,2.399608 0.5,3.599609 0.3,1.099999 0.70039,2.1 1.40039,3 0.7,0.899998 1.5,1.5 2.5,2 1.1,0.499999 2.39961,0.699219 3.59961,0.699219 1.90001,0.1 3.69961,-0.499218 5.09961,-1.699219 1.30001,-1.2 2.2,-2.799608 2.5,-4.599609 h -2.19922 c -0.20001,1.3 -0.90077,2.398828 -1.80078,3.298828 -1,0.799999 -2.39922,1.301172 -3.69922,1.201172 -0.9,0.100001 -1.79961,-0.09961 -2.59961,-0.59961 -0.7,-0.4 -1.30078,-0.901563 -1.80078,-1.601562 C 215.5,38.599218 215.2,37.8 215,37 c -0.2,-0.8 -0.30039,-1.600002 -0.40039,-2.5 h 13.59961 c 0.1,-1.200001 0.001,-2.399608 -0.29883,-3.599609 -0.20001,-1.2 -0.70078,-2.201171 -1.30078,-3.201172 -1.4,-2.000001 -3.6996,-3.19961 -6.09961,-3.09961 z m -99.69922,0.09961 c -1.3,0 -2.60078,0.3 -3.80078,1 -1.1,0.700001 -1.90039,1.700389 -2.40039,2.90039 H 114.5 v -3.40039 h -2.09961 V 49.300781 H 114.5 V 39.5 h 0.0996 c 0.2,0.6 0.6,1.199219 1,1.699219 0.5,0.499999 1,0.901172 1.5,1.201172 0.6,0.300001 1.20078,0.499217 1.80078,0.699218 1.8,0.4 3.70039,0.300001 5.40039,-0.5 1,-0.499999 1.8,-1.200001 2.5,-2 0.7,-0.899999 1.2,-1.899999 1.5,-3 0.6,-2.300001 0.6,-4.799608 0,-7.099609 -0.3,-1.099999 -0.8,-2.1 -1.5,-3 -0.7,-0.8 -1.5,-1.5 -2.5,-2 -1.1,-0.600001 -2.3,-0.800781 -3.5,-0.800781 z m -13.80078,0.5 v 17.601562 h 2.09961 V 25.199219 Z M 120.90039,26.5 c 0.9,0 1.79961,0.19922 2.59961,0.699219 0.7,0.4 1.30078,1.001172 1.80078,1.701172 0.5,0.699999 0.8,1.500391 1,2.40039 0.4,1.800002 0.4,3.698438 0,5.398438 -0.2,0.800001 -0.5,1.70039 -1,2.40039 -0.5,0.699999 -1.10078,1.301172 -1.80078,1.701172 -0.8,0.499998 -1.69961,0.699219 -2.59961,0.699219 -1,0 -2.00039,-0.199221 -2.90039,-0.699219 -0.7,-0.4 -1.40039,-1.001173 -1.90039,-1.701172 -0.5,-0.7 -0.89961,-1.50039 -1.09961,-2.40039 C 114.8,35.799218 114.69922,34.9 114.69922,34 c 0,-1.000001 0.10078,-2.000391 0.30078,-2.900391 0.2,-0.900001 0.5,-1.700391 1,-2.40039 0.5,-0.7 1.10039,-1.19961 1.90039,-1.59961 0.9,-0.4 2,-0.599609 3,-0.599609 z m 32.59961,0 c 0.8,0 1.60078,0.1 2.30078,0.5 0.6,0.300001 1.19922,0.80039 1.69922,1.400391 0.5,0.599999 0.89961,1.299999 1.09961,2 0.3,0.8 0.5,1.598827 0.5,2.298828 h -11.40039 c 0.1,-0.8 0.30156,-1.498828 0.60156,-2.298828 0.2,-0.700001 0.59961,-1.400001 1.09961,-2 0.4,-0.600001 0.99922,-1.10039 1.69922,-1.400391 0.8,-0.299998 1.60039,-0.5 2.40039,-0.5 z m 67.09961,0 c 0.80001,0 1.60077,0.1 2.30078,0.5 0.6,0.300001 1.19922,0.80039 1.69922,1.400391 0.5,0.599999 0.89962,1.299999 1.09961,2 0.20001,0.8 0.4,1.598827 0.5,2.298828 h -11.39844 c 0.1,-0.8 0.29961,-1.498828 0.59961,-2.298828 0.2,-0.700001 0.59961,-1.400001 1.09961,-2 0.4,-0.600001 0.99922,-1.10039 1.69922,-1.400391 0.8,-0.299998 1.60039,-0.5 2.40039,-0.5 z"/></g></g></svg>