<svg xmlns="http://www.w3.org/2000/svg" xmlns:xlink="http://www.w3.org/1999/xlink" version="1.1" viewBox="0 0 186 58"><title>Logo</title><desc>Created with Sketch.</desc><g id="Success-stories" fill="none" fill-rule="evenodd" stroke="none" stroke-width="1"><g id="Desktop---Success-stories" transform="translate(-80.000000, -100.000000)"><g id="Logo" transform="translate(80.000000, 100.000000)"><polygon id="Fill-1" fill="#000" points="0 0 0 1.786 0 10.715 0 14.287 0 23.216 0 25 1.731 25 16.269 25 18 25 18 21.429 16.269 21.429 3.462 21.429 3.462 14.286 12.634 14.286 14.365 14.286 14.365 10.715 12.634 10.715 3.462 10.715 3.462 3.571 16.269 3.571 18 3.571 18 0"/><polygon id="Fill-2" fill="#000" points="36.539 0 36.539 1.786 36.539 17.536 25.15 .75 24.631 0 22 0 22 1.786 22 23.215 22 25 25.461 25 25.461 23.215 25.461 7.464 36.85 24.25 37.369 25 40 25 40 23.215 40 1.786 40 0"/><polygon id="Fill-3" fill="#000" points="56.635 0 49.365 0 48.534 0 48.015 .679 44.38 5.393 44 5.893 44 6.5 44 18.501 44 19.108 44.38 19.608 48.015 24.322 48.534 25 49.365 25 56.635 25 57.466 25 57.985 24.322 61.619 19.608 62 19.108 62 18.501 62 12.5 62 10.714 60.269 10.714 53 10.714 53 14.286 58.538 14.286 58.538 17.893 55.804 21.429 50.196 21.429 47.461 17.893 47.461 7.107 50.196 3.571 55.804 3.571 58.919 7.608 61.619 5.393 57.985 .679 57.466 0"/><polygon id="Fill-4" fill="#000" points="66 0 66 3.571 67.852 3.571 69.185 3.571 69.185 21.429 67.852 21.429 66 21.429 66 25 67.852 25 69.185 25 72.889 25 74.148 25 76 25 76 21.429 74.148 21.429 72.889 21.429 72.889 3.571 74.148 3.571 76 3.571 76 0"/><polygon id="Fill-5" fill="#000" points="94.539 0 94.539 1.786 94.539 17.536 83.15 .75 82.631 0 80 0 80 1.786 80 23.215 80 25 83.461 25 83.461 23.215 83.461 7.464 94.85 24.25 95.369 25 98 25 98 23.215 98 1.786 98 0"/><polygon id="Fill-6" fill="#000" points="104 0 104 1.786 104 10.715 104 14.287 104 23.216 104 25 105.731 25 120.269 25 122 25 122 21.429 120.269 21.429 107.461 21.429 107.461 14.286 116.634 14.286 118.365 14.286 118.365 10.715 116.634 10.715 107.461 10.715 107.461 3.571 120.269 3.571 122 3.571 122 0"/><polygon id="Fill-7" fill="#000" points="126 0 126 1.786 126 10.715 126 14.287 126 23.216 126 25 127.73 25 142.269 25 144 25 144 21.429 142.269 21.429 129.461 21.429 129.461 14.286 138.634 14.286 140.365 14.286 140.365 10.715 138.634 10.715 129.461 10.715 129.461 3.571 142.269 3.571 144 3.571 144 0"/><path id="Fill-8" fill="#000" d="M148,0 L148,1.78619004 L148,10.7140059 L148,14.2859941 L148,23.2145936 L148,25 L151.578299,25 L151.578299,23.2145936 L151.578299,14.2859941 L160.120135,14.2859941 L163.028386,18.4284349 L163.028386,23.2145936 L163.028386,25 L166.606293,25 L166.606293,23.2145936 L166.606293,17.8571988 L166.606293,17.285571 L166.284419,16.8212948 L163.253306,12.4998041 L166.284419,8.17909699 L167,7.14280117 L166.284419,6.10728894 L162.527518,0.749894216 L161.990931,0 L148,0 Z M151.577514,3.57159648 L160.129555,3.57159648 L162.634679,7.14280117 L160.129555,10.7140059 L151.577514,10.7140059 L151.577514,3.57159648 Z"/><path id="Fill-9" fill="#1D71B8" d="M48.3690306,33 L37.7279121,33 L36,33 L36,34.7857703 L36,43.7142297 L36,47.2857703 L36,56.213838 L36,58 L37.7279121,58 L48.3690306,58 L49.2672871,58 L49.7850164,57.214073 L53.3098206,51.8571541 L53.965889,50.856919 L53.3098206,49.8570757 L50.4289565,45.4784517 L53.3098206,41.1429243 L54,40.1426892 L53.3098206,39.1420624 L49.7850164,33.7851434 L49.2672871,33 L48.3690306,33 Z M39.4550661,36.5715405 L47.470016,36.5715405 L49.7846374,40.1426892 L47.435905,43.713838 L39.4550661,43.713838 L39.4550661,36.5715405 Z M39.4546871,47.2853785 L47.470016,47.2853785 L49.8195064,50.8565272 L47.470016,54.4280677 L39.4546871,54.4280677 L39.4546871,47.2853785 Z"/><polygon id="Fill-10" fill="#1D71B8" points="75.269 33 60.731 33 59 33 59 34.786 59 43.714 59 47.285 59 56.214 59 58 60.731 58 75.269 58 77 58 77 54.429 75.269 54.429 62.461 54.429 62.461 47.286 71.634 47.286 73.365 47.286 73.365 43.714 71.634 43.714 62.461 43.714 62.461 36.571 75.269 36.571 77 36.571 77 33"/><polygon id="Fill-11" fill="#1D71B8" points="97.269 33 91.731 33 88.269 33 82.731 33 81 33 81 36.571 82.731 36.571 88.269 36.571 88.269 56.214 88.269 58 91.731 58 91.731 56.214 91.731 36.571 97.269 36.571 99 36.571 99 33"/><polygon id="Fill-12" fill="#1D71B8" points="120.269 33 114.73 33 111.269 33 105.73 33 104 33 104 36.571 105.73 36.571 111.269 36.571 111.269 56.214 111.269 58 114.73 58 114.73 56.214 114.73 36.571 120.269 36.571 122 36.571 122 33"/><polygon id="Fill-13" fill="#1D71B8" points="142.269 33 127.73 33 126 33 126 34.786 126 43.714 126 47.285 126 56.214 126 58 127.73 58 142.269 58 144 58 144 54.429 142.269 54.429 129.461 54.429 129.461 47.286 138.634 47.286 140.365 47.286 140.365 43.714 138.634 43.714 129.461 43.714 129.461 36.571 142.269 36.571 144 36.571 144 33"/><path id="Fill-14" fill="#1D71B8" d="M161.060635,33 L149.78915,33 L148,33 L148,34.7857703 L148,43.7142297 L148,47.2857703 L148,56.213838 L148,58 L151.578299,58 L151.578299,56.213838 L151.578299,47.2857703 L160.120135,47.2857703 L163.028386,51.4285378 L163.028386,56.213838 L163.028386,58 L166.606293,58 L166.606293,56.213838 L166.606293,50.856919 L166.606293,50.2856919 L166.284419,49.8210312 L163.253306,45.5 L166.284419,41.178577 L167,40.1426892 L166.284419,39.1068014 L162.527518,33.7498825 L161.990931,33 L161.060635,33 Z M151.577514,36.5715405 L160.129555,36.5715405 L162.634286,40.1426892 L160.129555,43.713838 L151.577514,43.713838 L151.577514,36.5715405 Z"/><polygon id="Fill-15" fill="#0071BC" points="177 34.954 181.487 40.65 177.064 46.314 180.273 48 186 40.647 180.044 33"/></g></g></g></svg>