<svg xmlns="http://www.w3.org/2000/svg" id="Futurewei_color_-_rgb" data-name="Futurewei color - rgb" viewBox="0 0 400 245"><defs><style>.cls-1{fill:red}.cls-2{fill:#231815}</style></defs><title>futurewei-spn</title><path d="M123.9246,100.49927h23.13354v7.44522H132.45049v8.3533h12.61757v7.3337H132.45049v14.94884H123.9246Z" class="cls-1"/><path d="M150.579,125.1662V100.49927h8.52589V125.052c0,4.71831,2.72823,6.70706,5.74057,6.70706,2.95525,0,5.68348-1.98875,5.68348-6.70706V100.49927h8.52589V125.1662c0,9.20828-5.96892,14.09652-14.20937,14.09652C156.54654,139.26272,150.579,134.37448,150.579,125.1662Z" class="cls-1"/><path d="M200.647,108.00025v30.58008h-8.52589V108.00025H182.7442v-7.501h27.281v7.501Z" class="cls-1"/><path d="M213.77434,125.1662V100.49927h8.52589V125.052c0,4.71831,2.72956,6.70706,5.74057,6.70706,2.95525,0,5.68481-1.98875,5.68481-6.70706V100.49927h8.52589V125.1662c0,9.20828-5.96892,14.09652-14.2107,14.09652C219.74326,139.26272,213.77434,134.37448,213.77434,125.1662Z" class="cls-1"/><path d="M266.85735,122.9491l7.61781,15.63123h-9.72073l-6.02468-13.13h-3.52347v13.13h-8.52589V100.49927H259.4679c7.67356,0,12.2777,4.54573,12.2777,11.76525C271.7456,116.92442,269.07446,120.5063,266.85735,122.9491Zm-11.65107-4.83249h5.79633a8.96948,8.96948,0,0,0,2.10293-5.68216c0-2.27286-1.19219-4.49-3.86334-4.49h-4.03592Z" class="cls-1"/><path d="M277.36934,100.49927H300.7299v7.44522H285.89523v7.501H298.5128v7.33369H285.89523v8.356h14.94885v7.44521H277.36934Z" class="cls-1"/><path d="M337.39308,122.55082l.51113,5.23076h.28411l.51113-5.74057,4.093-21.54174h8.69582l-8.41172,38.42093H333.1859l-4.717-22.90652-.28411-4.54572h-.51112l-.39829,4.54572-4.77407,22.90652h-9.71941l-8.4688-38.42093h9.09411l4.14877,21.99579.39828,5.28652h.397l.39829-5.23076,4.60413-22.05155h9.4353Z" class="cls-2"/><path d="M355.00644,100.49927h23.35923v7.44522H363.53232v7.501h12.6189v7.33369h-12.6189v8.356h14.94752v7.44521h-23.4734Z" class="cls-2"/><path d="M383.25126,138.58033V100.49927h8.405v38.08106Z" class="cls-2"/><path d="M259.24439,151.4851l-.15349.87112c-.02489.20465-.10232.307-.28208.307h-5.17558l-2.6908,17.04084a.28564.28564,0,0,1-.307.25581h-.99972c-.17975,0-.2558-.10233-.23091-.25581l2.6908-17.04084h-5.09953c-.17837,0-.25581-.076-.20464-.28069l.12859-.87113c.02489-.206.10232-.30835.307-.30835h11.78782C259.19323,151.203,259.27066,151.30535,259.24439,151.4851Z" class="cls-2"/><path d="M268.3898,159.73589a8.74643,8.74643,0,0,1-.15486,1.38412l-.28208,1.76713a.63159.63159,0,0,1-.71626.59043h-8.02125l-.22954,1.409a7.67458,7.67458,0,0,0-.1037,1.05088c0,1.97316,1.12831,2.9715,3.10148,2.9715a4.191,4.191,0,0,0,3.97121-2.15154c.1286-.206.28208-.23092.43557-.12859l.6402.35812c.206.1286.17976.28208.07744.46184a5.75853,5.75853,0,0,1-5.17558,2.76685c-2.94662,0-4.51049-1.58876-4.51049-4.1247a8.40054,8.40054,0,0,1,.10232-1.102l.66648-4.20213a5.64671,5.64671,0,0,1,5.73974-5.09953C266.69733,155.68724,268.3898,157.30227,268.3898,159.73589Zm-1.43528.17975c0-1.89711-1.12831-2.89545-3.0752-2.89545-2.20408,0-3.844,1.33158-4.2533,3.92006l-.23092,1.35785H266.595l.23092-1.28042A5.7851,5.7851,0,0,0,266.95452,159.91564Z" class="cls-2"/><path d="M281.81064,158.88965c.07743.30835,0,.41068-.17976.46184l-.84485.28207a.24324.24324,0,0,1-.33324-.17975,2.68271,2.68271,0,0,0-2.89545-2.38246c-2.17781,0-3.66425,1.30669-4.12608,4.07354l-.56278,3.74169a5.09943,5.09943,0,0,0-.1037,1.02461,2.62485,2.62485,0,0,0,2.89683,2.94661,3.83169,3.83169,0,0,0,3.7403-2.43362c.10233-.206.20465-.25719.3844-.17975l.79508.33323c.20464.07606.20464.23092.10232.38441a5.29757,5.29757,0,0,1-5.1258,3.25357c-2.76686,0-4.30446-1.56249-4.30446-4.1247a5.833,5.833,0,0,1,.10232-1.12831l.64159-3.99611c.51161-3.17753,2.43362-5.27928,5.53371-5.27928A3.93376,3.93376,0,0,1,281.81064,158.88965Z" class="cls-2"/><path d="M295.284,159.22289A5.24238,5.24238,0,0,1,295.1817,160.3l-1.48644,9.404a.26963.26963,0,0,1-.307.25581h-.8974c-.20464,0-.307-.10233-.2558-.25581l1.43528-9.12191a5.7559,5.7559,0,0,0,.10232-1.102,2.10614,2.10614,0,0,0-2.35757-2.40873c-1.58876,0-3.48449,1.38274-4.51048,3.3559l-1.46017,9.27678a.2865.2865,0,0,1-.307.25581h-.92228c-.17976,0-.25719-.10233-.23092-.25581l2.99777-18.88541a.28737.28737,0,0,1,.307-.2558h.92367c.17837,0,.2558.10232.22953.2558l-1.20436,7.50826a6.07351,6.07351,0,0,1,4.63769-2.63964A3.19865,3.19865,0,0,1,295.284,159.22289Z" class="cls-2"/><path d="M309.57736,159.22289A5.24238,5.24238,0,0,1,309.475,160.3l-1.48644,9.404a.26963.26963,0,0,1-.307.25581h-.89739c-.20465,0-.307-.10233-.25581-.25581l1.43528-9.12191a5.7559,5.7559,0,0,0,.10232-1.102,2.10614,2.10614,0,0,0-2.35756-2.40873c-1.58877,0-3.45961,1.35785-4.48422,3.331l-1.48644,9.30166a.27031.27031,0,0,1-.307.25581h-.89739c-.20465,0-.28208-.10233-.25581-.25581l2.15154-13.5038a.2889.2889,0,0,1,.30835-.25719h.896c.17976,0,.25719.10371.23092.25719l-.33324,2.15154a5.98888,5.98888,0,0,1,4.6377-2.66453A3.19865,3.19865,0,0,1,309.57736,159.22289Z" class="cls-2"/><path d="M324.15278,159.86448a8.05593,8.05593,0,0,1-.10232,1.1532l-.64021,4.04865a5.60061,5.60061,0,0,1-5.94576,5.14931c-2.94661,0-4.6377-1.63992-4.6377-4.1247a8.77678,8.77678,0,0,1,.10232-1.1532l.66648-4.09981c.48673-3.22869,2.53732-5.15069,5.89322-5.15069C322.43542,155.68724,324.15278,157.37832,324.15278,159.86448Zm-9.14818,1.20436-.589,3.81774a6.02457,6.02457,0,0,0-.10233,1.02461c0,1.922,1.22926,2.94661,3.22869,2.94661a4.19152,4.19152,0,0,0,4.40678-3.94633l.58905-3.68914a6.32852,6.32852,0,0,0,.12859-1.17948c0-1.92062-1.25552-2.9715-3.22869-2.9715C317.10636,157.07135,315.44016,158.378,315.0046,161.06884Z" class="cls-2"/><path d="M331.39832,150.81862,328.40055,169.704a.28651.28651,0,0,1-.307.25581h-.92228c-.17976,0-.25719-.10233-.23092-.25581l2.99777-18.88541a.28736.28736,0,0,1,.307-.2558h.92367C331.34716,150.56282,331.42459,150.66514,331.39832,150.81862Z" class="cls-2"/><path d="M344.66982,159.86448a8.05593,8.05593,0,0,1-.10232,1.1532l-.64021,4.04865a5.60061,5.60061,0,0,1-5.94576,5.14931c-2.94661,0-4.6377-1.63992-4.6377-4.1247a8.77678,8.77678,0,0,1,.10232-1.1532l.66648-4.09981c.48672-3.22869,2.53732-5.15069,5.89322-5.15069C342.95246,155.68724,344.66982,157.37832,344.66982,159.86448Zm-9.14818,1.20436-.589,3.81774a6.02565,6.02565,0,0,0-.10232,1.02461c0,1.922,1.22925,2.94661,3.22869,2.94661a4.19153,4.19153,0,0,0,4.40678-3.94633l.589-3.68914a6.32771,6.32771,0,0,0,.1286-1.17948c0-1.92062-1.25553-2.9715-3.22869-2.9715C337.6234,157.07135,335.9572,158.378,335.52164,161.06884Z" class="cls-2"/><path d="M359.295,157.50692l-1.922,12.09479c-.64021,3.94494-3.07383,5.73974-6.0716,5.73974a5.80256,5.80256,0,0,1-4.45932-1.87085.2668.2668,0,0,1,0-.41067l.48672-.589a.26332.26332,0,0,1,.43556,0,4.56364,4.56364,0,0,0,3.4845,1.5376c2.28151,0,4.12608-1.20436,4.664-4.53538l.3844-2.511a6.31168,6.31168,0,0,1-4.97094,3.15125c-2.28013,0-3.56193-1.48644-3.56193-3.89517a7.88008,7.88008,0,0,1,.10233-1.28041l.64159-4.02376c.48672-3.125,2.38245-5.07326,5.56-5.07326a12.46484,12.46484,0,0,1,5.02209,1.17947C359.32129,157.1474,359.34618,157.24973,359.295,157.50692Zm-1.58876.46045a9.12056,9.12056,0,0,0-3.61309-.79369c-2.35619,0-3.7403,1.409-4.1247,3.81773l-.61532,3.79285a7.29454,7.29454,0,0,0-.10232,1.22925c0,1.81968.84623,2.742,2.435,2.742,1.66482,0,3.56055-1.25552,4.94465-3.844Z" class="cls-2"/><path d="M365.59477,156.20023l-2.15292,13.5038a.28651.28651,0,0,1-.307.25581h-.92229c-.17975,0-.25719-.10233-.23091-.25581l2.15153-13.5038a.28891.28891,0,0,1,.30835-.25719h.92229C365.5436,155.943,365.61965,156.04675,365.59477,156.20023Zm.84485-5.33045-.40929,2.48616a.31414.31414,0,0,1-.33324.28208h-.8974c-.17837,0-.28208-.1037-.22953-.28208l.383-2.48616a.34035.34035,0,0,1,.35951-.307h.87112C366.38846,150.56282,366.46589,150.66514,366.43962,150.86978Z" class="cls-2"/><path d="M379.353,159.73589a8.74413,8.74413,0,0,1-.15487,1.38412l-.28069,1.76713a.63357.63357,0,0,1-.71764.59043h-8.02125l-.22954,1.409a7.4636,7.4636,0,0,0-.1037,1.05088c0,1.97316,1.12831,2.9715,3.10147,2.9715a4.19105,4.19105,0,0,0,3.97122-2.15154c.1286-.206.28208-.23092.43556-.12859l.64021.35812c.206.1286.17976.28208.07743.46184a5.75851,5.75851,0,0,1-5.17558,2.76685c-2.94661,0-4.51048-1.58876-4.51048-4.1247a8.40054,8.40054,0,0,1,.10232-1.102l.66648-4.20213a5.64671,5.64671,0,0,1,5.73974-5.09953C377.66052,155.68724,379.353,157.30227,379.353,159.73589Zm-1.43528.17975c0-1.89711-1.12831-2.89545-3.07521-2.89545-2.20408,0-3.844,1.33158-4.25329,3.92006l-.23092,1.35785h7.19991l.23091-1.28042A5.78435,5.78435,0,0,0,377.91771,159.91564Z" class="cls-2"/><path d="M391.98013,158.78733c.02489.23092,0,.33324-.25718.3844l-.66648.206c-.22954.07605-.33186,0-.3844-.15487a2.48428,2.48428,0,0,0-2.818-2.229c-2.58848,0-3.40844,1.48644-3.40844,2.56221,0,1.30669,1.28179,1.846,2.99915,2.53732,2.07549.84485,3.71541,1.74225,3.71541,3.844,0,1.97316-1.41039,4.30446-4.99721,4.30446-2.53732,0-4.30445-1.2818-4.58653-3.22869-.05116-.25581,0-.35951.20464-.41068l.71764-.22953c.23092-.07743.33324-.02627.3844.17837.17976,1.51272,1.46017,2.38384,3.27985,2.38384,2.58849,0,3.53566-1.58876,3.53566-2.87056,0-1.46017-1.25552-1.97316-3.15126-2.742-2.07548-.87112-3.56192-1.69108-3.56192-3.71541,0-1.76713,1.35784-3.89378,4.79118-3.89378C390.16045,155.71351,391.69806,156.91787,391.98013,158.78733Z" class="cls-2"/><circle cx="95.223" cy="155.465" r="4.969" class="cls-1"/><circle cx="101.476" cy="140.586" r="4.472" class="cls-1"/><circle cx="103.407" cy="126.065" r="4.025" class="cls-1"/><circle cx="99.954" cy="112.594" r="3.622" class="cls-1"/><circle cx="92.885" cy="103.239" r="3.26" class="cls-1"/><circle cx="83.956" cy="96.781" r="2.934" class="cls-1"/><circle cx="74.823" cy="93.902" r="2.641" class="cls-1"/><circle cx="66.146" cy="95.283" r="2.376" class="cls-1"/><circle cx="58.702" cy="99.145" r="2.139" class="cls-1"/><circle cx="53.785" cy="104.868" r="1.925" class="cls-1"/><circle cx="53.704" cy="112.551" r="1.732" class="cls-1"/><circle cx="79.535" cy="72.865" r="4.969" class="cls-1"/><circle cx="63.523" cy="74.89" r="4.472" class="cls-1"/><circle cx="49.983" cy="80.478" r="4.025" class="cls-1"/><circle cx="40.042" cy="90.204" r="3.622" class="cls-1"/><circle cx="35.475" cy="101.004" r="3.26" class="cls-1"/><circle cx="34.347" cy="111.965" r="2.934" class="cls-1"/><circle cx="36.42" cy="121.314" r="2.641" class="cls-1"/><circle cx="41.955" cy="128.138" r="2.376" class="cls-1"/><circle cx="49.021" cy="132.654" r="2.139" class="cls-1"/><circle cx="56.436" cy="134.051" r="1.925" class="cls-1"/><circle cx="63.131" cy="130.279" r="1.732" class="cls-1"/><circle cx="15.846" cy="127.751" r="4.969" class="cls-1"/><circle cx="25.606" cy="140.606" r="4.472" class="cls-1"/><circle cx="37.215" cy="149.538" r="4.025" class="cls-1"/><circle cx="50.608" cy="153.284" r="3.622" class="cls-1"/><circle cx="62.245" cy="151.839" r="3.26" class="cls-1"/><circle cx="72.302" cy="147.336" r="2.934" class="cls-1"/><circle cx="79.362" cy="140.866" r="2.641" class="cls-1"/><circle cx="82.504" cy="132.661" r="2.376" class="cls-1"/><circle cx="82.881" cy="124.283" r="2.139" class="cls-1"/><circle cx="80.384" cy="117.163" r="1.925" class="cls-1"/><circle cx="73.77" cy="113.252" r="1.732" class="cls-1"/></svg>