<svg xmlns="http://www.w3.org/2000/svg" xmlns:svg="http://www.w3.org/2000/svg" xmlns:xlink="http://www.w3.org/1999/xlink" id="svg501" width="33mm" height="33mm" version="1.1" viewBox="0 0 124.724 124.724"><metadata id="metadata505"/><title id="title458">logo</title><desc id="desc460">Created with Sketch.</desc><defs id="defs483"><path id="path-1" d="m 41.886495,0.99490157 c 0.996545,-0.47991083 2.616401,-0.47791893 3.60881,0 L 76.815914,16.078112 c 0.996545,0.479911 2.004951,1.747606 2.250055,2.821481 l 7.735552,33.891666 c 0.246126,1.07835 -0.116267,2.657149 -0.803036,3.518329 L 64.323951,83.488594 c -0.68963,0.864769 -2.149934,1.565803 -3.251424,1.565803 H 26.309273 c -1.106082,0 -2.564656,-0.704623 -3.251425,-1.565803 L 1.3833143,56.309588 C 0.69368372,55.444818 0.33517402,53.865133 0.58027877,52.791259 L 8.3158304,18.899593 c 0.2461264,-1.07835 1.2576468,-2.343562 2.2500556,-2.821481 z"/><linearGradient id="linearGradient-3" x1="33.067" x2="51.887" y1="20.379" y2="46.118" gradientTransform="scale(1.037205,0.96412954)" gradientUnits="userSpaceOnUse"><stop id="stop463" offset="0%" stop-color="#FFF"/><stop id="stop465" offset="100%" stop-color="#439246"/></linearGradient><linearGradient id="linearGradient-4" x1="42.708" x2="67.108" y1="27.083" y2="69.228" gradientTransform="scale(1.0287098,0.97209147)" gradientUnits="userSpaceOnUse"><stop id="stop468" offset="0%" stop-color="#FFF"/><stop id="stop470" offset="100%" stop-color="#439246"/></linearGradient><linearGradient id="linearGradient-5" x1="29.211" x2="52.951" y1="34.494" y2="67.229" gradientTransform="scale(1.0909655,0.91661925)" gradientUnits="userSpaceOnUse"><stop id="stop473" offset="0%" stop-color="#FFF"/><stop id="stop475" offset="100%" stop-color="#439246"/></linearGradient><linearGradient id="linearGradient-6" x1="44.275" x2="74.364" y1="47.919" y2="97.153" gradientTransform="scale(1.0895938,0.91777322)" gradientUnits="userSpaceOnUse"><stop id="stop478" offset="0%" stop-color="#FFF"/><stop id="stop480" offset="100%" stop-color="#439246"/></linearGradient></defs><g id="Page-1" fill="none" fill-rule="evenodd" stroke="none" stroke-width="1" transform="translate(17.671256,4.259937)"><g id="logo"><g id="Rectangle-2" transform="translate(1)"><mask id="mask-2" fill="#fff"><use id="use485" width="100%" height="100%" x="0" y="0" xlink:href="#path-1"/></mask><use id="Mask" width="100%" height="100%" x="0" y="0" fill="#009f76" xlink:href="#path-1"/><polygon id="polygon489" fill="#000" points="-17.648 54.522 30.824 25.079 63.473 58.5 24.732 92.669" mask="url(#mask-2)" opacity=".29"/></g><path style="fill:url(#linearGradient-3)" id="Combined-Shape" fill="url(#linearGradient-3)" d="m 56.850863,39.260019 c -0.431511,1.183968 -1.242054,2.321574 -2.177234,2.93385 l -8.073899,5.286109 c -1.385467,0.907087 -3.624752,0.911671 -5.01722,0 l -8.0739,-5.286109 C 32.123143,41.286782 31,39.206345 31,37.545932 V 26.41503 c 0,-0.725313 0.213112,-1.530145 0.569268,-2.282577 z" transform="matrix(-1,0,0,1,87.850864,0)"/><path style="fill:url(#linearGradient-4)" id="path493" fill="url(#linearGradient-4)" d="m 56.077467,25.141246 c 0.353216,0.749086 0.565089,1.549489 0.565089,2.270656 v 11.130901 c 0,1.659898 -1.116142,3.736267 -2.50861,4.647938 l -8.0739,5.286109 c -1.385467,0.907087 -3.624752,0.911671 -5.01722,0 l -8.0739,-5.286109 C 32.29181,42.747422 31.677351,42.023843 31.226038,41.206007 Z" transform="matrix(-1,0,0,1,87.642556,0)"/><path style="fill:url(#linearGradient-5)" id="path495" fill="url(#linearGradient-5)" d="m 65.070213,57.184689 c -0.47167,1.016096 -1.233473,1.938998 -2.091354,2.434296 l -15.603889,9.00891 c -1.430617,0.825967 -3.752368,0.82466 -5.180721,0 L 26.59036,59.618985 C 25.159744,58.793018 24,56.781669 24,55.132349 V 37.11453 c 0,-0.765786 0.249712,-1.60853 0.65991,-2.374467 z"/><path style="fill:url(#linearGradient-6)" id="path497" fill="url(#linearGradient-6)" d="m 65.018948,34.954538 c 0.344743,0.707193 0.550271,1.465672 0.550271,2.159992 v 18.017819 c 0,1.651934 -1.162007,3.661976 -2.59036,4.486636 l -15.603889,9.00891 c -1.430617,0.825967 -3.752368,0.82466 -5.180721,0 L 26.59036,59.618985 C 25.92373,59.234106 25.315915,58.591843 24.856849,57.84876 Z"/></g></g><g style="font-size:29.3333px;line-height:1.25;font-family:'72';-inkscape-font-specification:'72 Normal'" id="text516" aria-label="Gardener"><path style="font-style:normal;font-variant:normal;font-weight:400;font-stretch:normal;font-size:24px;font-family:'72';-inkscape-font-specification:'72 Normal';font-variant-ligatures:normal;font-variant-caps:normal;font-variant-numeric:normal;font-variant-east-asian:normal;fill:#000;fill-opacity:1" id="path59" d="m 60.503906,98.992188 v 4.921872 c 0,0.85157 0.0078,1.36329 0.02344,1.53516 h -0.02344 c -0.335938,-0.66407 -0.824219,-1.15626 -1.464844,-1.47656 -0.640625,-0.32813 -1.367187,-0.49219 -2.179687,-0.49219 -1.15625,0 -2.136719,0.27344 -2.941406,0.82031 -0.796875,0.54687 -1.394531,1.31641 -1.792969,2.3086 -0.398437,0.99219 -0.597656,2.15625 -0.597656,3.49218 0,2.02344 0.425781,3.61719 1.277344,4.78125 0.859374,1.16407 2.136718,1.7461 3.832031,1.7461 0.859375,0 1.625,-0.17578 2.296875,-0.52735 0.671875,-0.35937 1.195312,-0.89453 1.570312,-1.60547 h 0.04687 c 0,0.38282 0.01172,0.76172 0.03516,1.13672 0.02344,0.375 0.05078,0.62891 0.08203,0.76172 h 2.015625 c -0.01562,-0.24219 -0.03125,-0.60156 -0.04687,-1.07812 -0.01563,-0.47657 -0.02344,-0.98829 -0.02344,-1.53516 V 98.992188 Z m -39.1875,0.644531 c -1.578125,0 -2.953125,0.343748 -4.125,1.031251 -1.171875,0.6875 -2.074218,1.66797 -2.707031,2.94141 -0.632812,1.26562 -0.949219,2.74999 -0.949219,4.45312 0,1.65625 0.304688,3.13281 0.914063,4.42969 0.609375,1.29687 1.484375,2.3125 2.625,3.04687 1.148437,0.72657 2.496093,1.08985 4.042969,1.08985 1.15625,0 2.175781,-0.23438 3.058593,-0.70313 0.882812,-0.46875 1.609375,-1.10156 2.179688,-1.89844 v 2.36719 h 1.96875 v -8.78906 H 21.75 v 2.07422 h 4.265625 v 0.0703 c -0.0078,0.89063 -0.191406,1.69922 -0.550781,2.42578 -0.359375,0.72656 -0.902344,1.3086 -1.628906,1.7461 -0.726563,0.42969 -1.625,0.64453 -2.695313,0.64453 -1.054687,0 -1.984375,-0.27344 -2.789063,-0.82032 -0.804687,-0.55468 -1.429687,-1.32422 -1.875,-2.30859 -0.4375,-0.98437 -0.65625,-2.10937 -0.65625,-3.375 0,-1.27344 0.21875,-2.38672 0.65625,-3.33984 0.445313,-0.96094 1.074219,-1.70313 1.886719,-2.22657 0.820312,-0.52343 1.78125,-0.78515 2.882813,-0.78515 1.039062,0 1.929687,0.1914 2.671875,0.57422 0.75,0.3828 1.417969,0.94921 2.003906,1.69922 l 1.757813,-1.39454 c -0.8125,-0.97656 -1.726563,-1.71093 -2.742188,-2.20312 -1.015625,-0.500003 -2.222656,-0.750001 -3.621094,-0.750001 z m 15.082032,3.843751 c -1.101563,0 -2.074219,0.21875 -2.917969,0.65625 -0.835938,0.42969 -1.527344,0.98047 -2.074219,1.65234 l 1.324219,1.3711 c 0.648437,-0.70313 1.246093,-1.19531 1.792969,-1.47657 0.546874,-0.28124 1.156249,-0.42187 1.828124,-0.42187 0.828125,0 1.464844,0.25 1.910157,0.75 0.453125,0.49219 0.679687,1.17578 0.679687,2.05078 v 0.75 l -2.519531,0.0469 c -1.570312,0.0312 -2.882812,0.35546 -3.9375,0.97265 -1.054687,0.60937 -1.582031,1.62109 -1.582031,3.03516 0,1.17187 0.335937,2.09375 1.007812,2.76562 0.679688,0.66407 1.664063,0.9961 2.953125,0.9961 1,0 1.808594,-0.17578 2.425781,-0.52735 0.625,-0.35937 1.175782,-0.88672 1.652344,-1.58203 h 0.04687 c 0,0.67969 0.03125,1.30469 0.09375,1.875 h 2.039063 c -0.0625,-0.78906 -0.09375,-1.68359 -0.09375,-2.68359 v -5.85938 c 0,-0.85156 -0.179688,-1.60546 -0.539063,-2.26172 -0.359375,-0.65624 -0.886718,-1.17187 -1.582031,-1.54687 -0.695312,-0.375 -1.53125,-0.5625 -2.507812,-0.5625 z m 12.9375,0 c -0.625,0 -1.183594,0.19531 -1.675782,0.58594 -0.492188,0.39062 -0.894531,0.98046 -1.207031,1.76953 h -0.04687 c 0,-0.25 -0.01172,-0.57812 -0.03516,-0.98438 -0.01562,-0.41406 -0.03515,-0.78906 -0.05859,-1.125 h -1.992188 c 0.04687,0.6875 0.07031,1.67187 0.07031,2.95313 v 9.71484 h 2.121094 v -6.59765 c 0,-1.31251 0.21875,-2.34767 0.65625,-3.10547 0.4375,-0.76563 1.121094,-1.14844 2.050781,-1.14844 0.390625,0 0.726562,0.043 1.007812,0.12891 l 0.164063,-2.07422 c -0.273437,-0.0781 -0.625,-0.11719 -1.054687,-0.11719 z m 21.398437,0 c -1.046875,0 -1.988281,0.2539 -2.824219,0.76172 -0.835938,0.5 -1.496094,1.24219 -1.980468,2.22656 -0.476563,0.97656 -0.714844,2.15625 -0.714844,3.53906 0,1.32032 0.222656,2.48047 0.667968,3.48047 0.453125,0.99219 1.113281,1.76563 1.980469,2.32031 0.875,0.54688 1.929688,0.82032 3.164063,0.82032 0.726562,0 1.386718,-0.10156 1.980468,-0.30469 0.601563,-0.20313 1.097657,-0.43359 1.488282,-0.69141 0.390625,-0.25781 0.785156,-0.55469 1.183594,-0.89062 l -1.148438,-1.51172 c -0.390625,0.34375 -0.75,0.625 -1.078125,0.84375 -0.320312,0.21875 -0.683594,0.39843 -1.089844,0.53906 -0.398438,0.13281 -0.84375,0.19922 -1.335937,0.19922 -0.789063,0 -1.453126,-0.20703 -1.992188,-0.62109 -0.539062,-0.42188 -0.941406,-0.95313 -1.207031,-1.59375 -0.257812,-0.64844 -0.386719,-1.3125 -0.386719,-1.99219 h 8.601563 c 0.03125,-0.40625 0.04687,-0.74219 0.04687,-1.00781 0,-1.03907 -0.175781,-2.01954 -0.527344,-2.94141 -0.351562,-0.92187 -0.925781,-1.67968 -1.722656,-2.27344 -0.796875,-0.60156 -1.832031,-0.90234 -3.105469,-0.90234 z m 14.238281,0 c -1.039062,0 -1.871094,0.20313 -2.496094,0.60937 -0.617187,0.39844 -1.140624,0.9961 -1.570312,1.79297 h -0.04687 c 0,-0.28906 -0.01172,-0.66796 -0.03516,-1.13672 -0.01562,-0.46874 -0.03515,-0.80859 -0.05859,-1.01953 h -1.992187 c 0.01562,0.10157 0.03125,0.45313 0.04687,1.05469 0.01563,0.60156 0.02344,1.14453 0.02344,1.62891 v 9.98437 h 2.121094 v -7.34765 c 0,-0.78125 0.132812,-1.44532 0.398437,-1.99219 0.273438,-0.55469 0.65625,-0.97656 1.148438,-1.26563 0.492187,-0.28906 1.070312,-0.43359 1.734375,-0.43359 0.929687,0 1.597656,0.25781 2.003906,0.77344 0.40625,0.5078 0.609375,1.24999 0.609375,2.22656 v 8.03906 h 2.121094 v -8.44922 c 0,-1.39062 -0.332031,-2.48047 -0.996094,-3.26953 -0.65625,-0.79687 -1.660157,-1.19531 -3.011719,-1.19531 z m 12.105469,0 c -1.046875,0 -1.988281,0.2539 -2.824219,0.76172 -0.835938,0.5 -1.496094,1.24219 -1.980468,2.22656 -0.476563,0.97656 -0.714844,2.15625 -0.714844,3.53906 0,1.32032 0.222656,2.48047 0.667968,3.48047 0.453125,0.99219 1.113281,1.76563 1.980469,2.32031 0.875,0.54688 1.929688,0.82032 3.164063,0.82032 0.726562,0 1.386718,-0.10156 1.980468,-0.30469 0.601561,-0.20313 1.097658,-0.43359 1.488278,-0.69141 0.39063,-0.25781 0.78516,-0.55469 1.1836,-0.89062 l -1.14844,-1.51172 c -0.39063,0.34375 -0.75,0.625 -1.078125,0.84375 -0.320312,0.21875 -0.683594,0.39843 -1.089844,0.53906 -0.398438,0.13281 -0.84375,0.19922 -1.335937,0.19922 -0.789063,0 -1.453126,-0.20703 -1.992188,-0.62109 -0.539062,-0.42188 -0.941406,-0.95313 -1.207031,-1.59375 -0.257812,-0.64844 -0.386719,-1.3125 -0.386719,-1.99219 h 8.601564 c 0.0313,-0.40625 0.0469,-0.74219 0.0469,-1.00781 0,-1.03907 -0.17578,-2.01954 -0.52734,-2.94141 -0.35157,-0.92187 -0.92578,-1.67968 -1.72266,-2.27344 -0.796871,-0.60156 -1.832027,-0.90234 -3.105465,-0.90234 z m 13.054685,0 c -0.625,0 -1.18359,0.19531 -1.67578,0.58594 -0.49219,0.39062 -0.89453,0.98046 -1.20703,1.76953 h -0.0469 c 0,-0.25 -0.0117,-0.57812 -0.0352,-0.98438 -0.0156,-0.41406 -0.0351,-0.78906 -0.0586,-1.125 h -1.99219 c 0.0469,0.6875 0.0703,1.67187 0.0703,2.95313 v 9.71484 h 2.12109 v -6.59765 c 0,-1.31251 0.21875,-2.34767 0.65625,-3.10547 0.4375,-0.76563 1.1211,-1.14844 2.05078,-1.14844 0.39063,0 0.72657,0.043 1.00782,0.12891 l 0.16406,-2.07422 c -0.27344,-0.0781 -0.625,-0.11719 -1.05469,-0.11719 z m -53.015622,1.80469 c 1.023437,0 1.84375,0.36328 2.460937,1.08984 0.617188,0.72656 0.925781,1.89844 0.925781,3.51562 0,1.70313 -0.320312,2.94141 -0.960937,3.71485 -0.632813,0.77343 -1.496094,1.16016 -2.589844,1.16015 -1.109375,0 -1.925781,-0.41406 -2.449219,-1.24218 -0.515625,-0.82813 -0.773437,-1.99219 -0.773437,-3.49219 0,-3.16406 1.128906,-4.74609 3.386719,-4.74609 z m 13.617187,0 c 0.960938,0 1.707031,0.29297 2.238281,0.8789 0.53125,0.57813 0.847657,1.46875 0.949219,2.67188 h -6.445313 c 0.03906,-0.8125 0.218751,-1.48437 0.539063,-2.01563 0.328125,-0.53124 0.730469,-0.91797 1.207031,-1.16015 0.484375,-0.25 0.988282,-0.375 1.511719,-0.375 z m 26.34375,0 c 0.960938,0 1.707031,0.29297 2.238281,0.8789 0.531252,0.57813 0.847664,1.46875 0.949214,2.67188 h -6.445308 c 0.03906,-0.8125 0.218751,-1.48437 0.539063,-2.01563 0.328125,-0.53124 0.730469,-0.91797 1.207031,-1.16015 0.484375,-0.25 0.988282,-0.375 1.511719,-0.375 z m -58.136719,5.17968 v 1.20704 c 0,0.54688 -0.140625,1.0664 -0.421875,1.55859 -0.28125,0.48437 -0.695312,0.87891 -1.242187,1.18359 -0.539063,0.29688 -1.183594,0.44532 -1.933594,0.44532 -0.703125,-1e-5 -1.257812,-0.17579 -1.664062,-0.52735 -0.398438,-0.35937 -0.597657,-0.83984 -0.597657,-1.44141 0,-0.85937 0.351563,-1.46094 1.054688,-1.80468 0.710937,-0.35155 1.648437,-0.54295 2.8125,-0.57422 z"/></g><rect style="fill:none;fill-rule:evenodd" id="rect153" width="115" height="115" x="3" y="0"/></svg>