<svg xmlns="http://www.w3.org/2000/svg" xmlns:svg="http://www.w3.org/2000/svg" id="svg86" version="1.1" viewBox="0 0 600 600"><metadata id="metadata92"/><title id="title70">Kilo</title><style id="style72">.text{font:italic 700 80px sans-serif}</style><circle id="xl" cx="300" cy="300" r="290" fill="#fff" fill-opacity="0" stroke="#000" stroke-width="20"/><circle id="l" cx="300" cy="300" r="250" fill="#fff" fill-opacity="0" stroke="#000" stroke-width="20"/><circle id="m" cx="300" cy="300" r="80" fill="#fff" fill-opacity="0" stroke="#000" stroke-width="20"/><circle id="s" cx="300" cy="300" r="40" fill="#fff" fill-opacity="0" stroke="#000" stroke-width="20"/><line id="tl" x1="160" x2="240" y1="160" y2="240" fill="none" stroke="#000" stroke-linecap="round" stroke-width="20"/><line id="bl" x1="160" x2="240" y1="440" y2="360" fill="none" stroke="#000" stroke-linecap="round" stroke-width="20"/><line id="tr" x1="440" x2="360" y1="160" y2="240" fill="none" stroke="#000" stroke-linecap="round" stroke-width="20"/><line id="br" x1="440" x2="360" y1="440" y2="360" fill="none" stroke="#000" stroke-linecap="round" stroke-width="20"/><g style="font-style:italic;font-variant:normal;font-weight:700;font-stretch:normal;font-size:80px;line-height:normal;font-family:sans-serif" id="text82" aria-label="kg" class="text"><path style="font-style:italic;font-variant:normal;font-weight:700;font-stretch:normal;font-size:80px;line-height:normal;font-family:sans-serif" id="path96" d="M 277.11914,111.67969 264.7207,170 h 11.19922 l 3.04102,-14.16016 5.43945,-4.95898 L 290.7207,170 h 13.11914 l -10.32031,-26.7207 18.56055,-16.47852 h -12.7207 l -17.83985,16.79883 6.80078,-31.91992 z m 56.32031,14.40039 c -6.08,0 -12.16031,3.04031 -16.32031,8.32031 -4.64,5.76 -7.59961,14.48024 -7.59961,22.24023 0,8.80001 5.84,15.19922 14,15.19922 4.96,0 8.16125,-1.52023 13.28125,-6.24023 l -1.28125,5.83984 c -1.12,5.28 -5.83969,8.80078 -11.67969,8.80078 -4,0 -6.88086,-1.68007 -6.88086,-4.08007 l 0.0801,-0.96094 h -11.51953 c -0.16,0.96 -0.24023,1.84047 -0.24023,2.48047 0,3.12 2.08125,6.07969 5.28125,7.67969 2.96,1.43999 6.47945,2.08007 11.43945,2.08007 13.28,0 22.00016,-5.76 24.16016,-16 l 9.51953,-44.63867 h -10.64063 l -1.43945,6.63867 c -2.16,-5.04 -5.44016,-7.35937 -10.16016,-7.35937 z m 0.0801,8.95898 c 4.48,0 7.36133,3.84172 7.36133,9.76172 0,9.76 -6.08117,18.08008 -13.20117,18.08008 -4.16,0 -6.72071,-3.36094 -6.72071,-8.96094 0,-9.84 6.00055,-18.88086 12.56055,-18.88086 z"/></g><g style="font-style:italic;font-variant:normal;font-weight:700;font-stretch:normal;font-size:80px;line-height:normal;font-family:sans-serif" id="text84" aria-label="kg" class="text" transform="rotate(180, 340, 430)"><path style="font-style:italic;font-variant:normal;font-weight:700;font-stretch:normal;font-size:80px;line-height:normal;font-family:sans-serif" id="path103" d="M 357.11914,371.67969 344.7207,430 h 11.19922 l 3.04102,-14.16016 5.43945,-4.95898 L 370.7207,430 h 13.11914 l -10.32031,-26.7207 18.56055,-16.47852 h -12.7207 l -17.83985,16.79883 6.80078,-31.91992 z m 56.32031,14.40039 c -6.08,0 -12.16031,3.04031 -16.32031,8.32031 -4.64,5.76 -7.59961,14.48023 -7.59961,22.24023 0,8.80001 5.84,15.19922 14,15.19922 4.96,0 8.16125,-1.52023 13.28125,-6.24023 l -1.28125,5.83984 c -1.12,5.28 -5.83969,8.80078 -11.67969,8.80078 -4,0 -6.88086,-1.68007 -6.88086,-4.08007 l 0.0801,-0.96094 h -11.51953 c -0.16,0.96 -0.24023,1.84047 -0.24023,2.48047 0,3.12 2.08125,6.07969 5.28125,7.67969 2.96,1.43999 6.47945,2.08007 11.43945,2.08007 13.28,0 22.00016,-5.76 24.16016,-16 l 9.51953,-44.63867 h -10.64063 l -1.43945,6.63867 c -2.16,-5.04 -5.44016,-7.35937 -10.16016,-7.35937 z m 0.0801,8.95898 c 4.48,0 7.36133,3.84172 7.36133,9.76172 0,9.76 -6.08117,18.08008 -13.20117,18.08008 -4.16,0 -6.72071,-3.36094 -6.72071,-8.96094 0,-9.84 6.00055,-18.88086 12.56055,-18.88086 z"/></g></svg>