<svg xmlns="http://www.w3.org/2000/svg" xmlns:svg="http://www.w3.org/2000/svg" id="svg2" width="578.133" height="488.293" version="1.1" viewBox="0 0 578.133 488.293" xml:space="preserve"><metadata id="metadata8"/><g id="g10" transform="matrix(1.3333333,0,0,-1.3333333,0,488.29333)"><g id="g12" transform="scale(0.1)"><path id="path14" d="m 456.898,279.602 c -35.398,-21 -128.699,-30.204 -174.597,-30.204 -128.602,0 -206.0979,67 -206.0979,181.204 V 1010.8 L 0,1018.7 v 166.7 H 313.102 V 493.602 c 0,-39.403 22.996,-56.5 69,-56.5 h 48.597 l 26.199,-157.5" style="fill:#f4bb40;fill-opacity:1;fill-rule:evenodd;stroke:none"/><path id="path16" d="m 1888.9,770.602 c 24.9,-24.903 31.5,-56.5 31.5,-87.903 0,-137.898 -101.1,-210.097 -334.8,-210.097 -32.8,0 -88.1,3.898 -89.3,3.898 -13.4,0.102 -16.3,-7.699 -17.2,-10.699 -9.2,-31.199 16,-35.903 80.4,-47.102 l 184.9,-27.398 C 1898.1,367.699 1936,295.5 1936,204.801 1936,86.6992 1871.7,0.101563 1579,0.101563 c -102.4,0 -216.6,11.796837 -312.4,27.597637 V 187.801 c 115.5,-9.199 207.2,-17 314.8,-17 87.9,0 121.1,2.699 121.1,35.398 1.3,26.301 -29.7,34 -98.4,45.403 l -169.5,26.699 c -110.3,19.801 -143.1,82.801 -140.5,143.097 1.3,36.801 19.6,72.204 51.2,94.5 -69.6,36.801 -101.1,97.102 -101.1,182.5 0,170.704 124.8,220.5 343.9,220.5 h 427.6 V 770.602 Z m -224.4,0 h -77.4 c -73.6,0 -97.2,-17 -97.2,-77.403 0,-60.301 26.3,-85.301 97.2,-85.301 72.2,0 94.5,26.301 94.5,86.602 -0.1,36.699 -6.6,60.301 -17.1,76.102" style="fill:#f4bb40;fill-opacity:1;fill-rule:evenodd;stroke:none"/><path id="path18" d="M 3396.3,914.699 H 3204.7 V 710.398 h 79 V 429 262.301 h 237.7 V 429 914.699 h -125.1" style="fill:#f4bb40;fill-opacity:1;fill-rule:evenodd;stroke:none"/><path id="path20" d="m 3374.1,1237.4 c 73.8,0 125.8,-50.6 125.8,-121.7 0,-69.7 -52,-120.302 -125.8,-120.302 -72.5,0 -124.4,50.602 -124.4,120.302 0,71.2 52,121.7 124.4,121.7" style="fill:#f4bb40;fill-opacity:1;fill-rule:nonzero;stroke:none"/><path id="path22" d="m 2990.7,503.602 c 73.8,0 125.8,-50.602 125.8,-121.704 0,-69.699 -52,-120.296 -125.8,-120.296 -72.5,0 -124.4,50.597 -124.4,120.296 0,71.102 52,121.704 124.4,121.704" style="fill:#f4bb40;fill-opacity:1;fill-rule:nonzero;stroke:none"/><path id="path24" d="m 826.5,450.199 c -86.203,0 -147.902,60.102 -147.902,143 0,84.5 61.8,144.699 147.902,144.699 87.801,0 149.5,-60.097 149.5,-144.699 0,-82.898 -61.699,-143 -149.5,-143 z m -1.102,487.102 c -205.597,0 -352.996,-143.5 -352.996,-345.199 0,-197.801 147.399,-341.301 352.996,-341.301 209.402,0 356.902,143.5 356.902,341.301 -0.1,201.699 -147.5,345.199 -356.902,345.199" style="fill:#f4bb40;fill-opacity:1;fill-rule:nonzero;stroke:none"/><path id="path26" d="m 3980.2,446 c -86.2,0 -147.9,60.199 -147.9,143 0,84.5 61.8,144.699 147.9,144.699 87.8,0 149.5,-60.097 149.5,-144.699 0,-82.898 -61.7,-143 -149.5,-143 z m -1.1,487.102 c -205.6,0 -353,-143.5 -353,-345.204 0,-197.796 147.4,-341.398 353,-341.398 209.4,0 356.9,143.5 356.9,341.398 -0.1,201.704 -147.5,345.204 -356.9,345.204" style="fill:#f4bb40;fill-opacity:1;fill-rule:nonzero;stroke:none"/><path id="path28" d="m 2699.1,267.801 h -627.5 v 161.5 l 353.1,330.801 h -171.9 -10.5 -128 v 160.097 h 578.2 V 760.102 L 2342,429.301 2529.7,428 v 80 h 169.4 V 267.801" style="fill:#f4bb40;fill-opacity:1;fill-rule:evenodd;stroke:none"/><path id="path30" d="M 2583.2,2758.55 2209,2542.5 v -434.15 l 374.2,216.05 z m -793.69,73.5 L 2168,2613.5 2543.43,2830.27 2165,3048.8 Z M 2168,1565.1 1300.9,2065.7 v 424.8 l 409.46,-236.4 454.54,-265.9 500.3,288.9 v 577.6 l -500.2,288.8 -457.48,-264.11 -365.62,211.11 826.1,477 867.1,-500.6 V 2065.7 Z m -949.1,453.3 949.1,-548 949.1,547.9 v 1095.9 l -949.1,548 -901.7,-520.5 c -18.2,-10.5 -29.5,-30.1 -29.5,-51.1 0,-21 11.3,-40.5 29.5,-51 L 2127,2542.7 v -434.2 l -908.1,524.3 v -614.4" style="fill:#f4bb40;fill-opacity:1;fill-rule:evenodd;stroke:none"/></g></g></svg>