<svg xmlns="http://www.w3.org/2000/svg" xmlns:xlink="http://www.w3.org/1999/xlink" id="Слой_1" x="0" y="0" version="1.1" viewBox="0 0 1131 485" xml:space="preserve" style="enable-background:new 0 0 1131 485"><style type="text/css">.st0{fill:#ffe000}.st1{fill:#fff}</style><rect width="1131" height="485" class="st0"/><rect width="51.1" height="51.1" x="376.8" y="366.9"/><rect width="51.1" height="51.1" x="376.8" y="264.8"/><rect width="51.1" height="153.2" x="325.7" y="264.8"/><rect width="51.1" height="153.2" x="427.8" y="264.8"/><rect width="51.1" height="51.1" x="172.6" y="315.9"/><rect width="51.1" height="51.1" x="172.6" y="264.8"/><rect width="25.5" height="51.1" x="147.1" y="264.8"/><rect width="25.5" height="51.1" x="223.6" y="264.8"/><rect width="51.1" height="153.2" x="96" y="264.8"/><rect width="51.1" height="153.2" x="249.2" y="264.8"/><rect width="51.1" height="51.1" x="504.4" y="264.8"/><rect width="51.1" height="51.1" x="606.5" y="264.8"/><rect width="51.1" height="153.2" x="555.5" y="264.8"/><rect width="51.1" height="153.2" x="683.1" y="264.8"/><rect width="51.1" height="51.1" x="759.7" y="315.9"/><rect width="51.1" height="51.1" x="759.7" y="264.8"/><rect width="51.1" height="51.1" x="861.8" y="315.9"/><rect width="51.1" height="51.1" x="861.8" y="264.8"/><rect width="51.1" height="51.1" x="810.7" y="366.9"/><rect width="51.1" height="25.5" x="963.9" y="328.7"/><rect width="51.1" height="153.2" x="938.4" y="264.8"/><rect width="51.1" height="51.1" x="989.4" y="366.9"/><rect width="51.1" height="51.1" x="989.4" y="264.8"/><rect width="51.1" height="51.1" x="451" y="160.7"/><rect width="51.1" height="51.1" x="400.6" y="160.7"/><rect width="51.5" height="101.9" x="400.6" y="59"/><rect width="51.1" height="51.1" x="580.3" y="161.1"/><rect width="51.1" height="51.1" x="580.3" y="59"/><rect width="51.1" height="153.2" x="529.2" y="59"/><rect width="51.1" height="153.2" x="631.3" y="59"/><rect width="51.1" height="51.1" x="937.4" y="160.7"/><rect width="51.1" height="51.1" x="937.4" y="58.6"/><rect width="51.1" height="153.2" x="886.3" y="58.6"/><rect width="51.1" height="153.2" x="988.4" y="58.6"/><rect width="51.5" height="51.5" x="758.7" y="109.5"/><rect width="51.5" height="51.5" x="810.2" y="160.9"/><rect width="51.5" height="51.5" x="810.2" y="58"/><rect width="51.5" height="154.4" x="707.3" y="58"/><path d="M125.4,161H290l-10.3,50H112L125.4,161z" class="st1"/><path d="M186.4,58c-27.8,0-44.2,22.1-50.3,50.3L111,211h51l23.2-95.1c1.1-4.5,5.1-7.6,9.7-7.6h134.4L339,58H186.4z" class="st1"/><path d="M113.8,120H147v91H96L113.8,120z" class="st1"/><path d="M213,203h103l-1,8H213V203z" class="st1"/><path d="M248,161h88l-2,8h-86V161z" class="st1"/><path d="M236,182h119l-2.1,11H236V182z" class="st1"/><path d="M278,103.3h68l-1,5h-67V103.3z" class="st1"/><path d="M278,58h88l-2,8h-86V58z" class="st1"/><path d="M256,80h119l-2.1,10H256V80z" class="st1"/><path d="M358.5,203H217l3.9-10h137.6V203z" class="st0"/><path d="M375,80h-76l3.8-14H375V80z" class="st0"/></svg>