<svg xmlns="http://www.w3.org/2000/svg" xmlns:svg="http://www.w3.org/2000/svg" id="svg2" width="203.213" height="144" version="1.1" viewBox="0 0 203.213 144" xml:space="preserve"><metadata id="metadata8"/><g id="g10" transform="matrix(1.3333333,0,0,-1.3333333,0,144)"><g id="g12" transform="scale(0.1)"><path id="path14" d="m 919.113,256.973 h -315 v 566.058 h 315 V 256.973" style="fill:#f1511b;fill-opacity:1;fill-rule:nonzero;stroke:none"/><path id="path16" d="m 624.121,540 c 0,114.84 53.77,217.113 137.5,283.031 C 700.387,871.238 623.117,900 539.141,900 340.332,900 179.164,738.824 179.164,540 c 0,-198.816 161.168,-360 359.977,-360 83.976,0 161.246,28.762 222.48,76.973 -83.73,65.918 -137.5,168.195 -137.5,283.027" style="fill:#e71b25;fill-opacity:1;fill-rule:nonzero;stroke:none"/><path id="path18" d="m 1344.07,540 c 0,-198.816 -161.17,-360 -359.972,-360 -83.977,0 -161.243,28.762 -222.477,76.973 83.727,65.918 137.492,168.195 137.492,283.027 0,114.84 -53.765,217.113 -137.492,283.031 C 822.855,871.238 900.121,900 984.098,900 1182.9,900 1344.07,738.824 1344.07,540" style="fill:#f79410;fill-opacity:1;fill-rule:nonzero;stroke:none"/><path id="path20" d="m 1332.83,316.926 v 13.972 h -3.65 l -4.2,-9.609 -4.19,9.609 h -3.65 v -13.972 h 2.57 v 10.535 l 3.94,-9.082 h 2.67 l 3.94,9.109 v -10.562 z m -23.11,0 v 11.59 h 4.68 v 2.351 h -11.91 v -2.351 h 4.68 v -11.59 h 2.55" style="fill:#231f20;fill-opacity:1;fill-rule:nonzero;stroke:none"/></g></g></svg>