<svg xmlns="http://www.w3.org/2000/svg" xmlns:xlink="http://www.w3.org/1999/xlink" id="Layer_1" x="0" y="0" version="1.1" viewBox="0 0 72.634 49.882" xml:space="preserve" style="enable-background:new 0 0 72.634079 49.8818092"><style type="text/css">.st4{fill:#0063ff}.st13{fill:#001959}</style><g><g><path d="M47.722229,37.9155579c-0.515583-0.4861069-1.1346169-0.8491096-1.8399544-1.0793724 c-0.7032967-0.2295189-1.7793274-0.3411255-3.2895584-0.3411255h-2.4561119v10.7577362h3.5695953 c1.4103012,0,2.5066338-0.2317429,3.2586899-0.6885567c0.7529831-0.4575577,1.3413353-1.1008759,1.7488327-1.9110527 c0.4034195-0.801651,0.6080017-1.6667023,0.6080017-2.5703201c0-0.8950844-0.1377487-1.6982193-0.4095383-2.387516 C48.637989,39.0004883,48.2376289,38.4016647,47.722229,37.9155579z M47.5551872,41.9712601 c0,0.6084671-0.0978889,1.1494484-0.2908859,1.6084862c-0.1905861,0.4531059-0.4714584,0.8413239-0.8349266,1.1542702 c-0.3614273,0.3110962-0.7928391,0.5242996-1.2823753,0.6340523c-0.5141945,0.1153145-1.3595047,0.1739006-2.5125694,0.1739006 h-0.7730026V38.233696h0.3275909c1.1188622,0,1.9861374,0.0567284,2.5776405,0.1690788 c0.5652695,0.1071587,1.063427,0.3229599,1.4806595,0.6422081c0.4140816,0.3166542,0.7383347,0.7337952,0.9636841,1.2395515 C47.4394073,40.7973366,47.5551872,41.3650169,47.5551872,41.9712601z" class="st13"/><path d="M62.6301384,36.4794617h-1.6543503v2.7191734h-1.2549438v1.5252686h1.2549438v4.9735413 c0,0.5260201,0.1295509,0.9247169,0.3850021,1.1857681c0.2569656,0.2628326,0.6416092,0.3958511,1.1430893,0.3958511 c0.2398033,0,0.5732346-0.0362778,1.0195007-0.1102562l0.2282448-0.0380554v-1.4528694h-0.9140472 c-0.100029,0-0.1647568-0.0049782-0.2018356-0.0078239c-0.0030251-0.0273857-0.0056038-0.0657959-0.0056038-0.1194992v-4.8266563 h1.4418449v-1.5252686h-1.4418449V36.4794617z" class="st13"/><polygon points="9.908 36.49 6.093 44.241 2.251 36.49 1.533 36.49 0 47.279 1.737 47.279 2.595 40.947 5.735 47.279 6.453 47.279 9.552 41.005 10.409 47.279 12.174 47.279 10.627 36.49" class="st13"/><path d="M19.3863201,40.059185c-0.6681023-0.5840187-1.4586582-0.8795204-2.3578033-0.8795204 c-1.1131821,0-2.0697174,0.3994675-2.8430052,1.186882c-0.7722406,0.7860222-1.1638556,1.7436905-1.1638556,2.8461456 c0,1.101757,0.3888235,2.0629158,1.15557,2.8573074c0.7693624,0.7975349,1.7088032,1.2018852,2.7924166,1.2018852 c0.8885059,0,1.6990356-0.3084068,2.4166775-0.9182472v0.9254265l1.5966377-0.0071793v-8.0732498h-1.5966377V40.059185z M18.7422047,41.4745827c0.4687157,0.4807549,0.6965332,1.061985,0.6965332,1.7771835 c0,0.7141533-0.2313061,1.2925911-0.7073498,1.7684631c-0.4758682,0.4762154-1.0264854,0.7075233-1.6832466,0.7075233 c-0.6633911,0-1.217061-0.2407265-1.6924934-0.7364807c-0.4784861-0.4981995-0.7111006-1.0693092-0.7111006-1.7457848 c0-0.6775208,0.2288637-1.2493324,0.6995869-1.747879c0.4665375-0.4940109,1.0217752-0.7343864,1.6974649-0.7343864 C17.7190323,40.7632217,18.2753181,40.9959221,18.7422047,41.4745827z" class="st13"/><path d="M37.0894928,40.059185c-0.6681023-0.5840187-1.4586563-0.8795204-2.3578033-0.8795204 c-1.1131821,0-2.0697174,0.3994675-2.8430042,1.186882c-0.7722416,0.7860222-1.1638565,1.7436905-1.1638565,2.8461456 c0,1.101757,0.3888245,2.0629158,1.155571,2.8573074c0.7693615,0.7975349,1.7088032,1.2018852,2.7924175,1.2018852 c0.888504,0,1.6990356-0.3084068,2.4166756-0.9182472v0.9254265l1.5966377-0.0071793v-8.0732498h-1.5966377V40.059185z M36.4453773,41.4745827c0.4687157,0.4807549,0.6965332,1.061985,0.6965332,1.7771835 c0,0.7141533-0.2313042,1.2925911-0.7073479,1.7684631c-0.4758682,0.4762154-1.0264854,0.7075233-1.6832504,0.7075233 c-0.6633873,0-1.2170563-0.2407265-1.6924896-0.7364807c-0.4784889-0.4981995-0.7111015-1.0693092-0.7111015-1.7457848 c0-0.6775208,0.2288628-1.2493324,0.6995888-1.747879c0.4665337-0.4940109,1.0217743-0.7343864,1.697464-0.7343864 C35.4222069,40.7632217,35.9784927,40.9959221,36.4453773,41.4745827z" class="st13"/><path d="M56.7504616,40.059185c-0.6680984-0.5840187-1.4586563-0.8795204-2.3577995-0.8795204 c-1.1131821,0-2.0697174,0.3994675-2.8430061,1.186882c-0.7722397,0.7860222-1.1638565,1.7436905-1.1638565,2.8461456 c0,1.101757,0.3888245,2.0629158,1.155571,2.8573074c0.7693634,0.7975349,1.7088013,1.2018852,2.7924156,1.2018852 c0.888504,0,1.6990356-0.3084068,2.4166756-0.9182472v0.9254265l1.5966415-0.0071793v-8.0732498h-1.5966415V40.059185z M56.1063461,41.4745827c0.4687195,0.4807549,0.696537,1.061985,0.696537,1.7771835 c0,0.7141533-0.231308,1.2925911-0.7073517,1.7684631c-0.4758682,0.4762154-1.0264854,0.7075233-1.6832466,0.7075233 c-0.6633911,0-1.2170601-0.2407265-1.6924934-0.7364807c-0.4784851-0.4981995-0.7111015-1.0693092-0.7111015-1.7457848 c0-0.6775208,0.2288666-1.2493324,0.6995888-1.747879c0.4665375-0.4940109,1.0217743-0.7343864,1.697464-0.7343864 C55.0831757,40.7632217,55.6394615,40.9959221,56.1063461,41.4745827z" class="st13"/><path d="M71.0374451,40.059185c-0.6681061-0.5840187-1.4586563-0.8795204-2.3578033-0.8795204 c-1.1131821,0-2.0697174,0.3994675-2.8430023,1.186882c-0.7722473,0.7860222-1.1638565,1.7436905-1.1638565,2.8461456 c0,1.101757,0.3888245,2.0629158,1.1555634,2.8573074c0.7693634,0.7975349,1.7088089,1.2018852,2.7924194,1.2018852 c0.888504,0,1.6990356-0.3084068,2.4166794-0.9182472v0.9254265l1.5966339-0.0071793v-8.0732498h-1.5966339V40.059185z M70.3933258,41.4745827c0.4687195,0.4807549,0.6965332,1.061985,0.6965332,1.7771835 c0,0.7141533-0.2313004,1.2925911-0.7073441,1.7684631c-0.4758682,0.4762154-1.0264893,0.7075233-1.6832504,0.7075233 c-0.6633911,0-1.2170563-0.2407265-1.6924896-0.7364807c-0.4784927-0.4981995-0.7111053-1.0693092-0.7111053-1.7457848 c0-0.6775208,0.2288666-1.2493324,0.6995926-1.747879c0.4665298-0.4940109,1.0217743-0.7343864,1.697464-0.7343864 C69.3701553,40.7632217,69.926445,40.9959221,70.3933258,41.4745827z" class="st13"/><polygon points="26.373 44.295 24.087 39.199 22.307 39.199 25.474 46.335 23.922 49.882 25.702 49.882 30.378 39.199 28.583 39.199" class="st13"/></g><g><g><g><path d="M27.750597,11.6395931v15.3119755c0,0.3900566,0.2084637,0.6905708,0.5466137,0.884985l7.4765625,4.38661 c0.3364029,0.1934128,0.7502632,0.2301636,1.0866661,0.0367508l7.4750938-4.4100361 c0.3390617-0.1949406,0.5480843-0.5072021,0.5480843-0.8983097V11.6260719l-8.5665092,5.0993614L27.750597,11.6395931z" class="st13"/><path d="M25.2183819,25.3499107v-14.780962c0-0.225913,0.0570221-0.5113544,0.4987602-0.7299919 l10.2887211-6.1235657c0.1929398-0.1099229,0.4295502-0.1099222,0.6224861,0.0000014l10.480896,6.2368946 c0.1962891,0.1118336,0.3103485,0.1850748,0.3064537,0.4422789l-0.0000267,14.9553442 c0,0.3101997,0.3424416,0.456316,0.6137466,0.3059292l2.1067581-1.2511616 c0.1998978-0.1108036,0.295536-0.2777596,0.295536-0.5063114V8.5988531c0-0.2695704-0.0901299-0.3618422-0.2838631-0.4743671 L36.6319504,0.0850521c-0.1947479-0.1131118-0.4351196-0.1134217-0.6301575-0.0008122l-13.490221,8.032197 c-0.1945267,0.1123142-0.3092041,0.3039045-0.3092041,0.5285263v15.2534037c0,0.2204304,0.0929184,0.384901,0.2817211,0.4986668 l2.1274281,1.2630291C24.8829937,25.8236446,25.2183819,25.6668625,25.2183819,25.3499107z" class="st13"/></g></g><polygon points="42.422 10.204 36.317 6.58 36.317 6.58 36.317 6.58 36.317 6.58 36.317 6.58 30.212 10.204 36.317 13.829 36.317 13.829 36.317 13.829" class="st4"/></g></g></svg>