<svg xmlns="http://www.w3.org/2000/svg" xmlns:xlink="http://www.w3.org/1999/xlink" width="500" height="500" version="1.1" viewBox="0 0 500 500"><title>logo stack</title><desc>Created with Sketch.</desc><defs><path id="path-1" d="M62.3849299,36.8573781 C48.1270325,56.0064825 34.0008239,57.584489 20.0063041,41.5913977 C9.97761916,32.2066323 13.2988888,20.2529666 18.1500727,11.3417 C20.7651287,6.76164017 20.1082984,3.47781148 16.1795818,1.49021398 C11.7163635,-0.548380669 7.76053451,1.63965497 4.31209479,8.05432091 C-0.860564774,17.6763198 -2.22393143,32.8447422 7.17439013,45.9487485 C16.5727117,59.0527549 36.4703121,71.6542134 53.2102857,63.5476043 C64.370268,58.1431982 70.6881039,51.2702035 72.1637934,42.9286202"/><circle id="path-3" cx="112.052" cy="67.425" r="66.749"/><ellipse id="path-5" cx="75.427" cy="65.813" rx="75.357" ry="65.773"/><polygon id="path-7" points="2.397 18.065 26.397 1.44 26.397 43.632"/><polygon id="path-9" points=".467 19.743 23.162 4.022 23.162 43.919"/></defs><g id="logo-stack" fill="none" fill-rule="evenodd" stroke="none" stroke-width="1"><ellipse id="Oval-18" cx="244.5" cy="318" fill="#AFD5D0" fill-rule="nonzero" rx="105.5" ry="23"/><g id="M-A-I-N-" transform="translate(129.000000, 50.094238)"><g id="torso" transform="translate(0.000000, 93.204702)"><g id="Group" transform="translate(0.000000, 24.780024)"><g id="TA-I.-L" transform="translate(0.000000, 12.458521)"><g id="Group-2"><mask id="mask-2" fill="#fff"><use xlink:href="#path-1"/></mask><use id="T-A-I-L" fill="#F7CD88" fill-rule="nonzero" stroke="#3C2E53" stroke-width="2" xlink:href="#path-1"/><ellipse id="Oval-5" cx="4.949" cy="8.924" fill="#FFF" fill-rule="nonzero" mask="url(#mask-2)" rx="23.797" ry="26.772"/></g><path id="T-A-I-L" fill-rule="nonzero" stroke="#3C2E53" stroke-width="5" d="M62.3849299,36.8573781 C48.1270325,56.0064825 34.0008239,57.584489 20.0063041,41.5913977 C9.97761916,32.2066323 13.2988888,20.2529666 18.1500727,11.3417 C20.7651287,6.76164017 20.1082984,3.47781148 16.1795818,1.49021398 C11.7163635,-0.548380669 7.76053451,1.63965497 4.31209479,8.05432091 C-0.860564774,17.6763198 -2.22393143,32.8447422 7.17439013,45.9487485 C16.5727117,59.0527549 36.4703121,71.6542134 53.2102857,63.5476043 C64.370268,58.1431982 70.6881039,51.2702035 72.1637934,42.9286202"/></g><rect id="Rectangle-7" width="15.814" height="61.425" x="73.408" y="92.239" fill="#F7CD88" fill-rule="nonzero" stroke="#3C2E53" stroke-width="6" rx="7.907"/><rect id="Rectangle-7" width="15.814" height="61.425" x="136.866" y="92.239" fill="#F7CD88" fill-rule="nonzero" stroke="#3C2E53" stroke-width="6" rx="7.907"/><mask id="mask-4" fill="#fff"><use xlink:href="#path-3"/></mask><use id="Oval-12" fill="#F7CD88" fill-rule="nonzero" xlink:href="#path-3"/><ellipse id="Oval-13" cx="119.339" cy="83.49" fill="#FFF" fill-rule="nonzero" mask="url(#mask-4)" rx="44.279" ry="46.493"/></g><circle id="Oval-12" cx="112.052" cy="92.205" r="63.749" fill-rule="nonzero" stroke="#3C2E53" stroke-width="6"/><path id="arm" fill="#F7CD88" fill-rule="nonzero" stroke="#3C2E53" stroke-width="6" d="M155.362367,41.02603 C180.001838,35.3664122 196.747783,28.9529252 205.6002,21.785569 C218.878825,11.0345347 224.423388,8.50851301 229.511587,11.8635379 C236.012942,17.8161064 234.712041,23.7935991 224.253432,32.4098146 C221.419896,34.7441935 218.21403,37.3945984 214.255158,40.1770952 C203.601795,47.6648215 187.495519,56.1090952 158.518099,61.9255813" transform="translate(194.421956, 36.201931) rotate(-17.000000) translate(-194.421956, -36.201931)"/><path id="Path-29" fill="#F7CD88" fill-rule="nonzero" stroke="#3C2E53" stroke-width="6" d="M28.1230221,93.6848166 C43.6017864,96.8297122 54.9170835,92.2093646 62.0689135,79.8237737 C69.2207434,67.4381828 76.3991749,62.8327634 83.604208,66.0075155 C89.116582,70.9963005 88.4988159,78.3973542 81.7509099,88.2106766 C71.6290509,102.93066 51.7974287,120.015076 18.4668488,114.756321" transform="translate(52.894352, 90.382659) rotate(140.000000) translate(-52.894352, -90.382659)"/></g><g id="head" transform="translate(31.746182, 0.000000)"><g id="HEAD" transform="translate(2.687287, 32.996051)"><mask id="mask-6" fill="#fff"><use xlink:href="#path-5"/></mask><use id="head" fill="#F7CD88" fill-rule="nonzero" xlink:href="#path-5"/><ellipse id="Oval-4" cx="85.272" cy="114.027" fill="#FFF" fill-rule="nonzero" mask="url(#mask-6)" rx="59.492" ry="38.67"/></g><ellipse cx="78.114" cy="98.809" fill-rule="nonzero" stroke="#3C2E53" stroke-width="7" rx="71.857" ry="62.273"/><g id="mouth" fill="#3C2E53" fill-rule="nonzero" transform="translate(64.179650, 105.758714)"><g id="Group-10" transform="translate(25.284254, 9.380892)"><path id="Combined-Shape" d="M1.84456913,0.162281144 C2.5154279,4.15348623 7.97526106,7.26541035 14.611238,7.26541035 C19.8867111,7.26541035 24.418868,5.29869244 26.3925394,2.48698815 C26.4383478,2.75952065 26.4618272,3.03615288 26.4618272,3.31617403 C26.4618272,7.69707069 20.7149736,11.2484891 13.6258705,11.2484891 C6.53676741,11.2484891 0.789913864,7.69707069 0.789913864,3.31617403 C0.789913864,2.19539389 1.16604992,1.12890375 1.84456913,0.162281144 Z"/></g><g id="Group-10" transform="translate(13.729260, 15.380892) scale(-1, 1) translate(-13.729260, -15.380892) translate(0.729260, 9.380892)"><path id="Combined-Shape" d="M0.949707831,0.643867894 C1.96066334,4.40102228 7.24465659,7.26541035 13.611238,7.26541035 C19.1830267,7.26541035 23.9256522,5.07155229 25.7005771,2.0054014 C25.815307,2.43178808 25.8750036,2.86967287 25.8750036,3.31617403 C25.8750036,7.69707069 20.1281501,11.2484891 13.0390469,11.2484891 C5.94994383,11.2484891 0.203090287,7.69707069 0.203090287,3.31617403 C0.203090287,2.37850988 0.466358692,1.47884485 0.949707831,0.643867894 Z"/></g><polygon id="Path-24" points="20.574 0 32.574 0 26.574 12"/></g><g id="eyes" fill-rule="nonzero" transform="translate(53.264256, 76.995611)"><circle id="Oval" cx="12.7" cy="12.154" r="11.898" fill="#FFF"/><circle id="Oval-2" cx="58.31" cy="12.154" r="11.898" fill="#FFF"/><ellipse id="Oval" cx="13.377" cy="12.154" fill="#3C2E53" rx="3.966" ry="7.932"/><ellipse id="Oval-2" cx="58.988" cy="12.154" fill="#3C2E53" rx="3.966" ry="7.932"/></g><g id="hat" fill-rule="nonzero" transform="translate(27.939007, 0.283712)"><path id="Path-14" fill="#FFF" d="M72.6829142,40.9241632 L60.1053338,6.64439287 C39.7170064,0.650331683 20.72267,6.36362673 3.1223246,23.784278 C3.1223246,30.9376388 3.1223246,30.9376388 3.1223246,56.5471221 C16.7342373,59.9011279 39.9211005,54.6934749 72.6829142,40.9241632 Z" transform="translate(37.902619, 30.937639) rotate(1.000000) translate(-37.902619, -30.937639)"/><path id="Path-14" fill="#BB0048" d="M71.1426568,36.4238671 L59.2186965,3.77547617 C38.0960884,-2.94750262 18.7346117,2.40133363 1.13426624,19.8219849 C1.13426624,26.9753457 1.13426624,26.9753457 1.13426624,52.584829 C14.7461789,55.9388348 38.0823091,50.5518475 71.1426568,36.4238671 Z" transform="translate(36.138462, 27.258716) rotate(1.000000) translate(-36.138462, -27.258716)"/></g><g id="l-ear" transform="translate(12.503818, 39.405762)"><path id="Path-18" fill-rule="nonzero" stroke="#3C2E53" stroke-linecap="square" stroke-width="7" d="M-2.51316331,13.2089335 L23.0634469,-4.50852723 L23.0634469,40.4551492 L-2.51316331,13.2089335 Z" transform="translate(11.190555, 16.893276) scale(-1, 1) rotate(-5.000000) translate(-11.190555, -16.893276)"/><mask id="mask-8" fill="#fff"><use xlink:href="#path-7"/></mask><use id="Path-18" fill="#F7CD88" fill-rule="nonzero" transform="translate(14.397475, 22.535900) scale(-1, 1) rotate(-5.000000) translate(-14.397475, -22.535900)" xlink:href="#path-7"/></g><g id="r-ear-fill" transform="translate(95.891989, 24.080657)"><polygon id="Path-18" fill-rule="nonzero" stroke="#3C2E53" stroke-width="7" points="2.45 15.777 25.145 .055 25.145 24.089"/><mask id="mask-10" fill="#fff"><use xlink:href="#path-9"/></mask><use id="Path-18" fill="#F7CD88" fill-rule="nonzero" xlink:href="#path-9"/></g><g id="bow-1" fill="#BB0048" fill-rule="nonzero" transform="translate(54.317053, 142.739320)"><polygon id="Path-3" points=".427 .873 .427 34.876 66.433 .873 66.433 34.876"/><circle id="Oval" cx="33.43" cy="17.875" r="6.847" stroke="#BB0048"/></g><g id="whiskers" fill-rule="nonzero" stroke="#3C2E53" stroke-linecap="round" stroke-width="6" transform="translate(0.000000, 89.238545)"><path id="Path-26" d="M143.501914,4.33320605 L159.830245,0.75281468"/><path id="Path-26" d="M141.341657,19.8612168 L158.024346,20.9202218"/><path id="Path-26" d="M13.2567975,26.9270557 L0.0977771611,28.1788698"/><path id="Path-27" d="M12.8958609,12.4990158 L1.70305611,11.5057912"/></g></g></g><path id="Porter" fill="#3C2E53" d="M103.712,365.882812 L130.76,365.882812 C140.02138,365.882812 146.921311,367.216799 151.46,369.884813 C155.998689,372.552826 158.268,377.321445 158.268,384.190812 C158.268,391.796184 155.508028,397.040131 149.988,399.922813 C144.835974,402.560159 137.62938,403.878812 128.368,403.878812 L127.632,403.878812 L127.632,428.534812 L139.132,428.534812 L139.132,430.282812 L103.712,430.282812 L103.712,428.534812 L109.692,428.534812 L109.692,367.630812 L103.712,367.630812 L103.712,365.882812 Z M127.632,367.630812 L127.632,402.130812 L129.564,402.130812 C133.244018,402.130812 135.789326,400.873492 137.2,398.358812 C138.610674,395.844133 139.316,391.765507 139.316,386.122813 L139.316,381.706813 C139.316,376.493453 138.656673,372.844156 137.338,370.758812 C136.019327,368.673469 133.612017,367.630812 130.116,367.630812 L127.632,367.630812 Z M190.536,412.158813 L190.536,404.338813 C190.536,398.389449 190.214003,394.050159 189.57,391.320812 C188.925997,388.591466 187.438678,387.226812 185.108,387.226812 C183.75866,387.226812 182.670004,387.610142 181.842,388.376813 C181.013996,389.143483 180.416002,390.416137 180.048,392.194813 C179.495997,394.954826 179.22,399.156118 179.22,404.798812 L179.22,411.974812 C179.22,418.660179 179.419331,422.677472 179.818,424.026813 C180.216669,425.376153 180.630665,426.480142 181.06,427.338813 C181.73467,428.81082 183.053324,429.546812 185.016,429.546812 C187.408012,429.546812 188.971996,428.166826 189.708,425.406813 C190.260003,423.444136 190.536,419.02818 190.536,412.158813 Z M184.832,431.202813 C177.165295,431.202813 171.369353,429.240165 167.444,425.314813 C163.518647,421.38946 161.556,415.762182 161.556,408.432813 C161.556,401.103443 163.656646,395.460832 167.858,391.504813 C172.059354,387.548793 177.962629,385.570813 185.568,385.570813 C193.173371,385.570813 198.846648,387.395461 202.588,391.044813 C206.329352,394.694164 208.2,400.260108 208.2,407.742813 C208.2,423.382891 200.410745,431.202813 184.832,431.202813 Z M243.504,389.066812 C241.234655,389.066812 239.241342,390.538798 237.524,393.482813 C235.806658,396.426827 234.948,399.922792 234.948,403.970813 L234.948,428.626813 L241.48,428.626813 L241.48,430.282812 L212.776,430.282812 L212.776,428.626813 L217.836,428.626813 L217.836,388.146813 L212.776,388.146813 L212.776,386.490813 L234.948,386.490813 L234.948,395.322812 C235.745337,392.194797 237.278655,389.787488 239.548,388.100813 C241.817345,386.414137 244.393319,385.570812 247.276,385.570812 C250.158681,385.570812 252.504658,386.383471 254.314,388.008812 C256.123342,389.634154 257.028,391.934131 257.028,394.908813 C257.028,397.883494 256.35334,400.168138 255.004,401.762812 C253.65466,403.357487 251.584681,404.154812 248.794,404.154812 C246.003319,404.154812 243.948673,403.234822 242.63,401.394813 C241.311327,399.554803 241.142662,397.009495 242.124,393.758812 L245.436,393.758812 C246.969341,390.630797 246.325347,389.066812 243.504,389.066812 Z M264.916,417.126813 L264.916,388.146813 L259.856,388.146813 L259.856,386.490813 L264.916,386.490813 L264.916,374.622813 L282.028,370.390813 L282.028,386.490813 L293.988,386.490813 L293.988,388.146813 L282.028,388.146813 L282.028,419.150813 C282.028,422.033494 282.31933,424.149472 282.902,425.498812 C283.48467,426.848153 284.695991,427.522812 286.536,427.522812 C288.376009,427.522812 289.985993,426.602822 291.366,424.762812 C292.746007,422.922803 293.650665,420.408162 294.08,417.218813 L295.644,417.402812 C295.153331,421.634834 293.804011,424.9928 291.596,427.476812 C289.387989,429.960825 285.738692,431.202812 280.648,431.202812 C275.557308,431.202812 271.66268,430.190823 268.964,428.166812 C266.26532,426.142802 264.916,422.462839 264.916,417.126813 Z M322.76,431.202813 C314.84796,431.202813 308.91402,429.1635 304.958,425.084812 C301.00198,421.006125 299.024,415.332849 299.024,408.064813 C299.024,400.796776 301.247311,395.230832 305.694,391.366813 C310.140689,387.502793 315.798632,385.570813 322.668,385.570813 C336.590736,385.570813 343.276003,392.562743 342.724,406.546812 L316.78,406.546812 L316.78,410.134813 C316.78,416.145509 317.546659,420.684131 319.08,423.750812 C320.613341,426.817495 323.281314,428.350813 327.084,428.350813 C334.198702,428.350813 338.859989,424.548184 341.068,416.942813 L342.724,417.218813 C341.558661,421.634835 339.458015,425.069467 336.422,427.522812 C333.385985,429.976158 328.83203,431.202813 322.76,431.202813 Z M316.872,404.706813 L326.348,404.706813 L326.348,400.198813 C326.348,395.230788 326.05667,391.842155 325.474,390.032813 C324.89133,388.22347 323.726009,387.318813 321.978,387.318813 C320.229991,387.318813 318.942004,388.284803 318.114,390.216813 C317.285996,392.148822 316.872,395.476122 316.872,400.198813 L316.872,404.706813 Z M378.764,389.066812 C376.494655,389.066812 374.501342,390.538798 372.784,393.482813 C371.066658,396.426827 370.208,399.922792 370.208,403.970813 L370.208,428.626813 L376.74,428.626813 L376.74,430.282812 L348.036,430.282812 L348.036,428.626813 L353.096,428.626813 L353.096,388.146813 L348.036,388.146813 L348.036,386.490813 L370.208,386.490813 L370.208,395.322812 C371.005337,392.194797 372.538655,389.787488 374.808,388.100813 C377.077345,386.414137 379.653319,385.570812 382.536,385.570812 C385.418681,385.570812 387.764658,386.383471 389.574,388.008812 C391.383342,389.634154 392.288,391.934131 392.288,394.908813 C392.288,397.883494 391.61334,400.168138 390.264,401.762812 C388.91466,403.357487 386.844681,404.154812 384.054,404.154812 C381.263319,404.154812 379.208673,403.234822 377.89,401.394813 C376.571327,399.554803 376.402662,397.009495 377.384,393.758812 L380.696,393.758812 C382.229341,390.630797 381.585347,389.066812 378.764,389.066812 Z"/><polygon id="Path-37" fill="#D67D54" fill-rule="nonzero" points="182.668 101.659 195.663 111.698 180.876 123.666"/><polygon id="Path-38" fill="#D67D54" fill-rule="nonzero" points="263.373 96.32 275.643 85.919 275.643 104.227"/></g></svg>