<svg xmlns="http://www.w3.org/2000/svg" xmlns:svg="http://www.w3.org/2000/svg" id="svg2" width="1406.107" height="416" version="1.1" viewBox="0 0 1406.107 416" xml:space="preserve"><metadata id="metadata8"/><defs id="defs6"><clipPath id="clipPath94" clipPathUnits="userSpaceOnUse"><path id="path92" d="M 0,312 H 1054.576 V 0 H 0 Z"/></clipPath></defs><g id="g10" transform="matrix(1.3333333,0,0,-1.3333333,0,416)"><g id="g12" transform="translate(225.8726,130.105)"><path id="path14" d="M 0,0 37.442,-21.615 0,-43.236 Z" style="fill:#00aa72;fill-opacity:1;fill-rule:nonzero;stroke:none"/></g><g id="g16" transform="translate(228.8306,135.2002)"><path id="path18" d="M 0,0 37.418,21.612 V -21.583 Z" style="fill:#00aa72;fill-opacity:1;fill-rule:nonzero;stroke:none"/></g><g id="g20" transform="translate(225.8726,183.5493)"><path id="path22" d="M 0,0 37.442,-21.61 0,-43.239 Z" style="fill:#00aa72;fill-opacity:1;fill-rule:nonzero;stroke:none"/></g><g id="g24" transform="translate(89.9663,215.3838)"><path id="path26" d="M 0,0 37.418,21.618 V -21.609 Z" style="fill:#00aa72;fill-opacity:1;fill-rule:nonzero;stroke:none"/></g><g id="g28" transform="translate(86.9966,210.2798)"><path id="path30" d="M 0,0 37.436,-21.626 0,-43.218 Z" style="fill:#00aa72;fill-opacity:1;fill-rule:nonzero;stroke:none"/></g><g id="g32" transform="translate(86.9966,156.8213)"><path id="path34" d="M 0,0 37.447,-21.621 0,-43.236 Z" style="fill:#00aa72;fill-opacity:1;fill-rule:nonzero;stroke:none"/></g><g id="g36" transform="translate(225.8726,237.0137)"><path id="path38" d="M 0,0 37.448,-21.63 0,-43.254 Z" style="fill:#00aa72;fill-opacity:1;fill-rule:nonzero;stroke:none"/></g><g id="g40" transform="translate(228.8306,188.6533)"><path id="path42" d="M 0,0 37.418,21.601 V -21.592 Z" style="fill:#00aa72;fill-opacity:1;fill-rule:nonzero;stroke:none"/></g><g id="g44" transform="translate(182.5386,215.3838)"><path id="path46" d="M 0,0 37.436,21.618 V -21.598 Z" style="fill:#00aa72;fill-opacity:1;fill-rule:nonzero;stroke:none"/></g><g id="g48" transform="translate(182.5386,108.5073)"><path id="path50" d="M 0,0 37.436,21.598 V -21.615 Z" style="fill:#00aa72;fill-opacity:1;fill-rule:nonzero;stroke:none"/></g><g id="g52" transform="translate(136.2466,242.1147)"><path id="path54" d="M 0,0 37.418,21.606 V -21.609 Z" style="fill:#00aa72;fill-opacity:1;fill-rule:nonzero;stroke:none"/></g><g id="g56" transform="translate(179.5635,263.73)"><path id="path58" d="M 0,0 37.453,-21.615 0,-43.236 Z" style="fill:#00aa72;fill-opacity:1;fill-rule:nonzero;stroke:none"/></g><g id="g60" transform="translate(179.5635,103.3711)"><path id="path62" d="M 0,0 37.453,-21.612 0,-43.23 Z" style="fill:#00aa72;fill-opacity:1;fill-rule:nonzero;stroke:none"/></g><g id="g64" transform="translate(182.5386,55.0195)"><path id="path66" d="M 0,0 37.436,21.621 V -21.598 Z" style="fill:#00aa72;fill-opacity:1;fill-rule:nonzero;stroke:none"/></g><g id="g68" transform="translate(133.2773,130.105)"><path id="path70" d="M 0,0 37.453,-21.615 0,-43.236 Z" style="fill:#00aa72;fill-opacity:1;fill-rule:nonzero;stroke:none"/></g><g id="g72" transform="translate(133.2773,237.0308)"><path id="path74" d="M 0,0 37.453,-21.635 0,-43.245 Z" style="fill:#00aa72;fill-opacity:1;fill-rule:nonzero;stroke:none"/></g><g id="g76" transform="translate(89.9541,161.9395)"><path id="path78" d="M 0,0 37.431,21.59 V -21.603 Z" style="fill:#00aa72;fill-opacity:1;fill-rule:nonzero;stroke:none"/></g><g id="g80" transform="translate(89.9663,108.4902)"><path id="path82" d="M 0,0 37.418,21.6 V -21.621 Z" style="fill:#00aa72;fill-opacity:1;fill-rule:nonzero;stroke:none"/></g><g id="g84" transform="translate(136.2466,81.7529)"><path id="path86" d="m 0,0 37.418,21.618 v -43.23 z" style="fill:#00aa72;fill-opacity:1;fill-rule:nonzero;stroke:none"/></g><g id="g88"><g id="g90" clip-path="url(#clipPath94)"><g id="g96" transform="translate(335.2051,134.3975)"><path id="path98" d="m 0,0 c 0,-5.928 10.999,-14.047 16.251,-14.047 5.581,0 16.586,8.119 16.586,14.047 V 55.177 C 32.837,61.099 22.011,69.21 16.251,69.21 10.999,69.21 0,61.099 0,55.177 Z m 49.591,-2.21 c 0,-7.773 -9.816,-17.256 -18.441,-21.826 7.447,-3.74 11.502,-5.936 15.061,-8.298 2.697,-1.679 3.553,-3.219 2.536,-6.084 -0.682,-2.207 -4.073,-7.117 -6.598,-7.117 -2.039,0 -3.223,0.684 -6.273,2.879 -5.066,3.204 -15.899,9.983 -28.251,15.07 -10.837,4.391 -24.373,16.072 -24.373,25.376 v 59.568 c 0,11.687 21.652,27.433 32.999,27.433 11.676,0 33.34,-15.746 33.34,-27.433 z" style="fill:#443d4e;fill-opacity:1;fill-rule:nonzero;stroke:none"/></g><g id="g100" transform="translate(421.001,110.0181)"><path id="path102" d="m 0,0 c 0,-2.034 -1.525,-3.729 -3.727,-3.729 h -9.294 c -2.046,0 -3.733,1.695 -3.733,3.729 v 103.919 c 0,2.033 1.687,3.714 3.733,3.714 h 9.294 c 2.202,0 3.727,-1.681 3.727,-3.714 z" style="fill:#443d4e;fill-opacity:1;fill-rule:nonzero;stroke:none"/></g><g id="g104" transform="translate(458.5693,181.1084)"><path id="path106" d="m 0,0 v -71.09 c 0,-2.204 -1.692,-3.73 -4.056,-3.73 h -8.468 c -2.035,0 -3.894,1.526 -3.894,3.73 V 32.829 c 0,2.033 1.859,3.714 3.894,3.714 h 7.105 c 2.715,0 3.895,-1.343 5.246,-3.714 l 34.2,-71.761 v 71.761 c 0,2.206 1.514,3.714 3.733,3.714 h 8.619 c 2.213,0 3.893,-1.508 3.893,-3.714 V -71.09 c 0,-2.204 -1.68,-3.73 -3.893,-3.73 h -6.933 c -2.553,0 -4.24,1.872 -5.257,3.73 z" style="fill:#443d4e;fill-opacity:1;fill-rule:nonzero;stroke:none"/></g><g id="g108" transform="translate(564.5107,166.3882)"><path id="path110" d="m 0,0 c 0,2.028 1.865,3.715 3.894,3.715 h 20.647 c 2.207,0 5.413,-3.215 5.413,-5.246 v -32.67 c 0,-11.334 -21.311,-27.415 -32.993,-27.415 -11.341,0 -33.184,16.081 -33.184,27.415 v 59.569 c 0,11.687 21.999,27.432 33.184,27.432 7.279,0 18.105,-5.584 26.06,-10.503 2.028,-1.187 2.71,-3.553 1.682,-5.572 L 21.837,31.139 C 20.826,29.27 18.111,28.588 15.916,29.775 9.82,32.999 1.524,37.219 -3.039,37.219 c -5.078,0 -16.419,-8.111 -16.419,-14.032 v -55.178 c 0,-5.762 11.174,-14.047 16.419,-14.047 5.072,0 16.245,8.458 16.245,14.047 v 20.98 H 3.894 C 1.865,-11.011 0,-9.31 0,-7.288 Z" style="fill:#443d4e;fill-opacity:1;fill-rule:nonzero;stroke:none"/></g><g id="g112" transform="translate(626.6201,134.3975)"><path id="path114" d="m 0,0 c 0,-6.107 11.676,-14.209 16.257,-14.209 4.725,0 11.67,3.712 17.764,7.097 2.37,1.184 5.247,0.503 6.268,-1.701 l 2.704,-5.583 c 1.012,-2.199 0.335,-4.57 -1.524,-5.579 -7.782,-4.74 -17.263,-9.65 -25.212,-9.65 -11.017,0 -33.005,15.052 -33.005,27.415 v 59.568 c 0,12.022 21.826,27.433 33.167,27.433 7.105,0 16.921,-4.928 24.882,-9.483 2.027,-1.02 2.704,-3.718 1.525,-5.751 L 40.289,64.141 C 39.268,62.107 36.558,61.437 34.356,62.618 28.268,65.66 21.161,69.38 16.419,69.38 11.676,69.38 0,61.26 0,55.177 Z" style="fill:#443d4e;fill-opacity:1;fill-rule:nonzero;stroke:none"/></g><g id="g116" transform="translate(683.8193,113.2358)"><path id="path118" d="m 0,0 v 100.701 c 0,2.033 1.866,3.715 3.894,3.715 h 8.804 c 2.184,0 4.05,-1.682 4.05,-3.715 V 7.784 h 31.826 c 2.196,0 3.9,-1.692 3.9,-3.717 v -7.285 c 0,-2.033 -1.704,-3.729 -3.9,-3.729 H 6.586 C 4.229,-6.947 0,-2.201 0,0" style="fill:#443d4e;fill-opacity:1;fill-rule:nonzero;stroke:none"/></g><g id="g120" transform="translate(760.1406,134.3975)"><path id="path122" d="m 0,0 c 0,-5.928 11,-14.047 16.252,-14.047 5.592,0 16.586,8.119 16.586,14.047 V 55.177 C 32.838,61.099 22.005,69.21 16.252,69.21 11,69.21 0,61.099 0,55.177 Z m 49.591,-2.21 c 0,-11.672 -21.658,-27.415 -33.339,-27.415 -11.341,0 -33.005,15.578 -33.005,27.415 v 59.568 c 0,11.687 21.664,27.433 33.005,27.433 11.681,0 33.339,-15.746 33.339,-27.433 z" style="fill:#443d4e;fill-opacity:1;fill-rule:nonzero;stroke:none"/></g><g id="g124" transform="translate(861.3447,104.7725)"><path id="path126" d="m 0,0 c -11.179,0 -33.005,15.052 -33.005,27.256 v 81.909 c 0,2.033 1.855,3.714 3.9,3.714 h 8.96 c 2.19,0 3.882,-1.681 3.882,-3.714 V 29.452 c 0,-5.934 11.011,-14.036 16.263,-14.036 5.251,0 16.245,8.102 16.245,14.036 v 79.713 c 0,2.033 1.52,3.714 3.565,3.714 h 9.29 c 2.045,0 3.899,-1.681 3.899,-3.714 V 27.256 C 32.999,15.416 11.167,0 0,0" style="fill:#443d4e;fill-opacity:1;fill-rule:nonzero;stroke:none"/></g><g id="g128" transform="translate(962.8721,189.0576)"><path id="path130" d="m 0,0 c 0,5.589 -10.15,14.056 -16.24,14.056 h -15.228 v -82.261 h 15.564 c 5.916,0 15.904,8.617 15.904,14.039 z m 16.765,-56.532 c 0,-10.153 -18.966,-26.237 -30.469,-26.237 H -40.11 c -4.744,0 -8.112,2.889 -8.112,6.271 V 22 c 0,3.561 3.721,6.594 8.112,6.594 h 26.072 c 11.837,0 30.803,-14.888 30.803,-26.222 z" style="fill:#443d4e;fill-opacity:1;fill-rule:nonzero;stroke:none"/></g></g></g></g></svg>