<svg xmlns="http://www.w3.org/2000/svg" xmlns:xlink="http://www.w3.org/1999/xlink" id="Layer_1" x="0" y="0" version="1.1" viewBox="0 0 360 132" xml:space="preserve" style="enable-background:new 0 0 360 132"><style type="text/css">.st0{fill:#384745}.st1{fill:#afb6b5}.st2{fill:#4768b0}</style><switch><g><g><g><path d="M187.3,31.3h22.2c2.6,0,5,0.3,7.2,1c2.2,0.6,4,1.6,5.6,2.9c1.5,1.3,2.7,2.9,3.6,4.7s1.3,4,1.3,6.4 c0,1.9-0.4,3.9-1.1,5.8c-0.7,2-2,3.8-3.9,5.4c-1.8,1.6-3.8,2.8-5.9,3.4c1.4,1.2,2.6,2.9,3.7,5.1c0.2,0.3,0.5,1.1,1.1,2.3 s1,2.1,1.4,2.8s0.8,1.3,1.3,2c0.5,0.7,1.1,1.2,1.9,1.8c0.8,0.5,1.7,0.8,2.8,0.8c0.7,0,1.5-0.1,2.2-0.4l-1,9.5 c-2,0.5-3.7,0.7-5.3,0.7c-3.1,0-5.8-0.8-7.9-2.3c-2.1-1.5-4.1-4.4-5.9-8.7c-0.1-0.1-0.4-1-1.1-2.7c-0.7-1.7-1.3-3.1-2-4.4 c-0.7-1.2-1.3-2.1-2-2.7c-0.6-0.5-1.2-0.8-1.8-0.8h-3v21.3h-13.3V31.3z M200.7,40.9v13.2h4.8c1.6,0,3.1-0.2,4.3-0.7 c1.2-0.5,2.2-1.2,2.9-2.2c0.7-1,1.1-2.3,1.1-4s-0.4-3-1.1-3.9c-0.7-1-1.6-1.6-2.7-1.9c-1-0.3-2-0.4-2.9-0.4H200.7z" class="st0"/><path d="M235.4,31.3h13.3v15.1c0,0.9-0.1,2.9-0.4,6h0.3c0.1-0.2,0.5-0.9,1.3-2.1c0.7-1.2,1.4-2.2,2.1-3l13.2-16 h14.4L262,52.4l18.5,32.7h-15.3l-12.4-22.6l-4,4.9v17.7h-13.3V31.3z" class="st0"/><path d="M283.9,31.3h35.7v9.9h-22.3v11.6H316v9.9h-18.7v12.6h23.1v9.9h-36.4V31.3z" class="st0"/><path d="M192,102.3h5v6.2h-2v-2.1c-0.5,1.5-1.7,2.3-3.5,2.3c-0.7,0-1.4-0.1-2-0.4c-0.6-0.3-1.1-0.6-1.6-1.2 s-0.8-1.2-1-2c-0.2-0.8-0.4-1.8-0.4-2.8c0-1.1,0.1-2,0.4-2.8c0.3-0.8,0.6-1.5,1.1-2s1.1-0.9,1.7-1.1c0.7-0.2,1.4-0.4,2.3-0.4 c1.1,0,2,0.2,2.8,0.5s1.3,0.9,1.7,1.5s0.5,1.4,0.3,2.2l-2.8,0.3c0.1-0.5,0-0.9-0.1-1.3c-0.1-0.4-0.3-0.6-0.6-0.8 c-0.3-0.2-0.7-0.3-1.1-0.3c-0.5,0-1,0.2-1.3,0.5c-0.4,0.3-0.6,0.8-0.8,1.4c-0.2,0.6-0.3,1.4-0.3,2.3c0,1.3,0.2,2.4,0.6,3.1 c0.4,0.7,1,1.1,1.9,1.1c0.5,0,0.9-0.1,1.2-0.3c0.3-0.2,0.6-0.4,0.7-0.7c0.1-0.3,0.2-0.5,0.2-0.7v-0.3H192V102.3z" class="st1"/><path d="M203.9,108.4c-0.7-0.2-1.3-0.6-1.8-1.1c-0.5-0.5-0.9-1.2-1.2-2c-0.3-0.8-0.4-1.8-0.4-3c0-1.1,0.1-2,0.4-2.8 c0.3-0.8,0.7-1.4,1.2-1.9c0.5-0.5,1.1-0.9,1.8-1.1s1.4-0.4,2.3-0.4c0.8,0,1.6,0.1,2.2,0.4s1.3,0.6,1.8,1.1 c0.5,0.5,0.9,1.1,1.1,1.9c0.3,0.8,0.4,1.7,0.4,2.8c0,0.9-0.1,1.7-0.3,2.5c-0.2,0.8-0.5,1.5-0.9,2.1c-0.4,0.6-1,1-1.7,1.4 c-0.7,0.3-1.6,0.5-2.6,0.5C205.3,108.7,204.5,108.6,203.9,108.4z M207.4,106.1c0.4-0.3,0.7-0.8,0.9-1.4s0.3-1.4,0.3-2.5 c0-0.9-0.1-1.6-0.3-2.2s-0.5-1-0.9-1.3c-0.4-0.3-0.8-0.5-1.3-0.5c-0.5,0-1,0.2-1.3,0.5c-0.4,0.3-0.6,0.7-0.8,1.3 c-0.2,0.6-0.3,1.3-0.3,2.2c0,1.4,0.2,2.4,0.6,3.2c0.4,0.8,1,1.1,1.9,1.1C206.6,106.6,207.1,106.4,207.4,106.1z" class="st1"/><path d="M214.1,96.3h3.1l2.3,6.9c0.1,0.3,0.2,0.6,0.3,1.1s0.1,0.8,0.1,1.1h0.1c0-0.3,0.1-0.7,0.2-1.1 c0.1-0.4,0.2-0.8,0.3-1l2.3-6.9h2.7l-4.2,12.2h-2.9L214.1,96.3z" class="st1"/><path d="M228.7,96.3h8.1v2.2h-5.1v2.6h4.2v2.2h-4.2v2.9h5.2v2.2h-8.3V96.3z" class="st1"/><path d="M240.8,96.3h5c0.6,0,1.1,0.1,1.6,0.2c0.5,0.1,0.9,0.4,1.3,0.7c0.3,0.3,0.6,0.6,0.8,1.1 c0.2,0.4,0.3,0.9,0.3,1.5c0,0.4-0.1,0.9-0.3,1.3c-0.2,0.4-0.5,0.9-0.9,1.2c-0.4,0.4-0.9,0.6-1.3,0.8c0.3,0.3,0.6,0.7,0.9,1.2 c0,0.1,0.1,0.2,0.2,0.5c0.1,0.3,0.2,0.5,0.3,0.6c0.1,0.2,0.2,0.3,0.3,0.5c0.1,0.2,0.3,0.3,0.4,0.4s0.4,0.2,0.6,0.2 c0.2,0,0.3,0,0.5-0.1l-0.2,2.2c-0.4,0.1-0.8,0.2-1.2,0.2c-0.7,0-1.3-0.2-1.8-0.5s-0.9-1-1.3-2c0,0-0.1-0.2-0.2-0.6 s-0.3-0.7-0.5-1c-0.2-0.3-0.3-0.5-0.4-0.6c-0.1-0.1-0.3-0.2-0.4-0.2h-0.7v4.8h-3V96.3z M243.8,98.5v3h1.1c0.4,0,0.7-0.1,1-0.2 s0.5-0.3,0.7-0.5c0.2-0.2,0.2-0.5,0.2-0.9s-0.1-0.7-0.3-0.9c-0.2-0.2-0.4-0.4-0.6-0.4c-0.2-0.1-0.5-0.1-0.7-0.1H243.8z" class="st1"/><path d="M254.1,96.3h3.2l3.2,6.1c0.2,0.3,0.5,1,0.9,2.2h0.1c0-0.1,0-0.4-0.1-0.8c0-0.4,0-0.7-0.1-1 c0-0.2,0-0.4,0-0.6v-5.9h2.5v12.2h-3.2l-3.3-6c-0.2-0.4-0.5-1.1-0.9-2h-0.1c0.1,1.2,0.1,1.9,0.1,2.2v5.9h-2.5V96.3z" class="st1"/><path d="M268.3,96.3h3.7l2,5.4c0.2,0.6,0.4,1.2,0.5,1.8h0.1c0.1-0.6,0.3-1.2,0.5-1.8l1.9-5.4h3.6v12.2h-2.8v-6.2 c0-0.5,0.1-1.3,0.2-2.4H278c-0.2,1.1-0.4,1.9-0.6,2.3l-2.4,6.3h-1.4l-2.4-6.3c-0.2-0.4-0.4-1.2-0.6-2.2h-0.1 c0.1,1.1,0.1,1.8,0.1,2.3v6.2h-2.5V96.3z" class="st1"/><path d="M285.1,96.3h8.1v2.2h-5.1v2.6h4.2v2.2h-4.2v2.9h5.2v2.2h-8.3V96.3z" class="st1"/><path d="M297.2,96.3h3.2l3.2,6.1c0.2,0.3,0.5,1,0.9,2.2h0.1c0-0.1,0-0.4-0.1-0.8c0-0.4,0-0.7-0.1-1 c0-0.2,0-0.4,0-0.6v-5.9h2.5v12.2h-3.2l-3.3-6c-0.2-0.4-0.5-1.1-0.9-2h-0.1c0.1,1.2,0.1,1.9,0.1,2.2v5.9h-2.5V96.3z" class="st1"/><path d="M310.5,96.3h9.7v2.2h-3.4v10h-3v-10h-3.3V96.3z" class="st1"/></g><path d="M77.3,84.3c0,3.5-2.8,6.3-6.3,6.3c-3.5,0-6.3-2.8-6.3-6.3c0-3.5,2.8-6.3,6.3-6.3 C74.5,78,77.3,80.8,77.3,84.3z M103.9,68.4c-0.2,0-0.4,0-0.6,0c1.6,3.5,2.7,7.3,3,11.4h13.5c1.9-3.4,5.1-6,8.8-7.2v-4.1 L103.9,68.4C104,68.4,103.9,68.4,103.9,68.4z M77.5,40.5v8.7c7.4,1,14.1,4.4,19.1,9.5l-4.4-18.2H77.5z M133.5,84.3 c-1.7,0-3.1,1.4-3.1,3.2c0,1.7,1.4,3.2,3.1,3.2c1.7,0,3.2-1.4,3.2-3.2C136.7,85.7,135.3,84.3,133.5,84.3z M162,28.5v74.3 c0,7.1-5.8,13-13,13H52.6c-7.1,0-13-5.8-13-13V28.5c0-7.1,5.8-13,13-13h96.5C156.2,15.6,162,21.4,162,28.5z M89.9,84.3 c0-10.4-8.5-18.9-18.9-18.9s-18.9,8.5-18.9,18.9s8.5,18.9,18.9,18.9S89.9,94.7,89.9,84.3z M149.3,87.5c0-5.9-3.2-11-8-13.7v-9.4 c0-4.7-3.8-8.6-8.6-8.6h-23.8l-5.6-23c-0.7-2.8-3.2-4.8-6.1-4.8H62.7c-3.5,0-6.3,2.8-6.3,6.3s2.8,6.3,6.3,6.3h2.2v8.4h-2.2 c-3.5,0-6.3,2.8-6.3,6.3s2.8,6.3,6.3,6.3H73c11.5,0,20.8,9.3,20.8,20.8l0,3.7c0,3.5,2.8,6.3,6.3,6.3h18.4c2.1,6.3,8,10.9,15,10.9 C142.2,103.2,149.3,96.1,149.3,87.5z" class="st2"/></g></g></switch></svg>