<svg xmlns="http://www.w3.org/2000/svg" xmlns:svg="http://www.w3.org/2000/svg" id="svg1396" width="250" height="250" version="1.1" viewBox="0 0 66.146 66.146"><defs id="defs1390"><rect id="rect71" width="66.146" height="21.969" x="0" y="275.031"/><rect id="rect65" width="130.892" height="64.837" x="0" y="277.613"/></defs><metadata id="metadata1393"/><g id="layer1" transform="translate(0,-230.85415)"><path id="path42" d="m 33.072914,230.85415 a 19.843747,19.843747 0 0 0 -19.843747,19.84375 19.843747,19.843747 0 0 0 19.843747,19.84375 v -3.96875 a 15.874998,15.874998 0 0 1 -15.874997,-15.875 15.874998,15.874998 0 0 1 15.874997,-15.875 z m 0,3.96875 v 31.75 a 15.874997,15.874997 0 0 0 15.874998,-15.875 15.874997,15.874997 0 0 0 -15.874998,-15.875 z m 9.919703,18.85156 a 1.9843747,1.9843747 0 0 1 0.0022,0 1.9843747,1.9843747 0 0 1 1.984375,1.98438 1.9843747,1.9843747 0 0 1 -1.984375,1.98437 1.9843747,1.9843747 0 0 1 -1.984374,-1.98437 1.9843747,1.9843747 0 0 1 1.982205,-1.98438 z" style="opacity:.999;fill:#ffb300;stroke-width:1.04337;stroke-linejoin:round;stop-opacity:1"/><g id="text63" aria-label="symplegma." transform="matrix(0.82609326,0,0,0.82609326,-0.39132116,45.627553)" style="font-style:normal;font-weight:400;font-size:17.6389px;line-height:1.25;font-family:sans-serif;letter-spacing:0;word-spacing:0;shape-inside:url(#rect65);fill:#000;fill-opacity:1;stroke:none"><path style="font-style:normal;font-variant:normal;font-weight:700;font-stretch:normal;font-family:'Champagne &amp; Limousines';-inkscape-font-specification:'Champagne &amp; Limousines Bold';letter-spacing:.00264583px;fill:#ffb300" id="path48" d="m 2.8766567,290.33716 q -0.8785,-0.48231 -1.2057843,-0.8096 -0.6373431,-0.63734 -0.6373431,-1.46416 0,-0.81821 0.6201176,-1.44694 0.6201177,-0.62873 1.5502941,-0.62873 0.9301764,0 1.4986175,0.57705 0.5856666,0.58567 0.5856666,1.2833 v 0.24116 l -1.3952646,0.56844 q -0.1291911,-0.97324 -0.301446,-1.1455 -0.1636422,-0.17225 -0.3875735,-0.17225 -0.2239314,0 -0.4220245,0.19809 -0.1980931,0.19809 -0.1980931,0.52538 0,0.32728 0.2239313,0.55121 0.1464167,0.15503 0.6804068,0.49093 0.9732402,0.53399 1.4211029,0.97324 0.706245,0.72347 0.706245,1.70532 0,1.00769 -0.7320833,1.74839 -0.7320832,0.7407 -1.8345145,0.7407 -1.1024313,0 -1.8431274,-0.7407 -0.73208325,-0.7407 -0.73208325,-1.85174 L 2.023995,291.29318 q 0,0.99908 0.3186715,1.31775 0.3186716,0.31867 0.7062451,0.31867 0.3875735,0 0.706245,-0.31867 0.3272843,-0.31867 0.3272843,-0.82683 0,-0.49092 -0.3445098,-0.82682 -0.2067059,-0.19809 -0.8612744,-0.62012 z"/><path style="font-style:normal;font-variant:normal;font-weight:700;font-stretch:normal;font-family:'Champagne &amp; Limousines';-inkscape-font-specification:'Champagne &amp; Limousines Bold';letter-spacing:.00264583px;fill:#ffb300" id="path50" d="M 8.9082236,296.99481 H 7.2287384 l 2.0498332,-4.40972 -2.8852694,-6.19256 h 1.6794852 l 2.0498336,4.34943 2.049833,-4.34943 h 1.679485 z"/><path style="font-style:normal;font-variant:normal;font-weight:700;font-stretch:normal;font-family:'Champagne &amp; Limousines';-inkscape-font-specification:'Champagne &amp; Limousines Bold';letter-spacing:.00264583px;fill:#ffb300" id="path52" d="m 16.395345,287.77918 v 6.48539 h -1.558907 v -7.87204 h 0.97324 q 0.637343,-0.42203 1.584745,-0.42203 1.102431,0 1.817289,0.55122 0.697632,-0.55122 1.800064,-0.55122 1.102431,0 1.860352,0.75792 0.680407,0.69764 0.714858,1.63642 v 5.89973 h -1.558907 v -6.23562 q -0.103352,-0.71486 -1.016303,-0.71486 -0.757922,0 -1.042142,0.67179 v 6.27869 h -1.558907 v -6.23562 h -0.0086 q -0.09474,-0.71486 -1.007691,-0.71486 -0.637343,0 -0.999078,0.46509 z"/><path style="font-style:normal;font-variant:normal;font-weight:700;font-stretch:normal;font-family:'Champagne &amp; Limousines';-inkscape-font-specification:'Champagne &amp; Limousines Bold';letter-spacing:.00264583px;fill:#ffb300" id="path54" d="m 25.234666,286.39253 h 1.558906 v 0.90433 q 0.921564,-1.54168 2.799142,-1.54168 1.877579,0 3.16949,1.29191 1.291912,1.2833 1.291912,3.06614 0,1.76561 -1.291912,3.06614 -1.291911,1.29191 -3.16949,1.29191 -1.877578,0 -2.799142,-1.55891 v 4.09106 h -1.558906 z m 1.558906,3.05752 v 1.32636 q 0.15503,0.83544 0.800986,1.47278 0.844049,0.83544 1.998156,0.83544 1.154108,0 2.00677,-0.85266 0.861274,-0.86128 0.861274,-2.11874 0,-1.26607 -0.861274,-2.12735 -0.852662,-0.86127 -2.00677,-0.86127 -1.154107,0 -2.032607,0.8785 -0.611505,0.6115 -0.766535,1.44694 z"/><path style="font-style:normal;font-variant:normal;font-weight:700;font-stretch:normal;font-family:'Champagne &amp; Limousines';-inkscape-font-specification:'Champagne &amp; Limousines Bold';letter-spacing:.00264583px;fill:#ffb300" id="path56" d="m 37.079837,281.87083 v 12.39374 H 35.52093 v -12.39374 z"/><path style="font-style:normal;font-variant:normal;font-weight:700;font-stretch:normal;font-family:'Champagne &amp; Limousines';-inkscape-font-specification:'Champagne &amp; Limousines Bold';letter-spacing:.00264583px;fill:#ffb300" id="path58" d="m 40.346713,288.72658 h 5.159034 q -0.551216,-1.60197 -2.566598,-1.60197 -2.023995,0 -2.592436,1.60197 z m -0.275608,1.36081 v 0.0258 q 0,1.25746 0.852661,2.11012 0.852662,0.85267 2.015383,0.85267 1.154107,0 2.023995,-0.86989 0.120578,-0.12058 0.465088,-0.5426 l 1.464166,0.51676 q -0.327284,0.55122 -0.757921,0.97324 -1.309137,1.31775 -3.195328,1.31775 -1.868966,0 -3.16949,-1.29191 -1.291912,-1.30053 -1.291912,-3.06614 0,-1.78284 1.291912,-3.07475 1.300524,-1.29191 3.16949,-1.29191 1.886191,0 3.195328,1.30914 1.128269,1.13688 1.128269,3.03168 z"/><path style="font-style:normal;font-variant:normal;font-weight:700;font-stretch:normal;font-family:'Champagne &amp; Limousines';-inkscape-font-specification:'Champagne &amp; Limousines Bold';letter-spacing:.00264583px;fill:#ffb300" id="path60" d="m 55.283857,289.45005 q -0.172255,-0.83544 -0.809598,-1.48139 -0.835436,-0.84405 -1.989544,-0.84405 -1.16272,0 -2.015382,0.86127 -0.852662,0.86128 -0.852662,2.12735 0,1.25746 0.852662,2.11874 0.852662,0.85266 2.015382,0.85266 1.154108,0 2.023995,-0.86989 0.602892,-0.60289 0.775147,-1.42971 z m -0.103353,3.47955 q -0.809598,1.54168 -2.695789,1.54168 -1.868965,0 -3.16949,-1.29191 -1.291911,-1.30053 -1.291911,-3.06614 0,-1.78284 1.291911,-3.06614 1.300525,-1.29191 3.16949,-1.29191 1.877579,0 2.807755,1.55891 v -0.92156 h 1.558907 v 5.92556 q 0,1.73117 -1.248848,2.9714 -1.309137,1.31775 -3.186716,1.31775 -1.877578,0 -3.160877,-1.2833 -0.292833,-0.30144 -0.740696,-0.89572 l 1.490005,-0.54261 q 0.301446,0.37896 0.422024,0.48232 0.835437,0.84405 1.989544,0.84405 2.437407,0 2.764691,-2.28238 z"/><path style="font-style:normal;font-variant:normal;font-weight:700;font-stretch:normal;font-family:'Champagne &amp; Limousines';-inkscape-font-specification:'Champagne &amp; Limousines Bold';letter-spacing:.00264583px;fill:#ffb300" id="path62" d="m 59.885709,287.77918 v 6.48539 h -1.558907 v -7.87204 h 0.97324 q 0.637343,-0.42203 1.584745,-0.42203 1.102431,0 1.817289,0.55122 0.697632,-0.55122 1.800064,-0.55122 1.102431,0 1.860353,0.75792 0.680406,0.69764 0.714857,1.63642 v 5.89973 h -1.558906 v -6.23562 q -0.103353,-0.71486 -1.016304,-0.71486 -0.757922,0 -1.042142,0.67179 v 6.27869 h -1.558907 v -6.23562 h -0.0086 q -0.09474,-0.71486 -1.007691,-0.71486 -0.637343,0 -0.999078,0.46509 z"/><path style="font-style:normal;font-variant:normal;font-weight:700;font-stretch:normal;font-family:'Champagne &amp; Limousines';-inkscape-font-specification:'Champagne &amp; Limousines Bold';letter-spacing:.00264583px;fill:#ffb300" id="path64" d="m 77.398062,294.26457 h -1.558907 v -1.37803 q -0.921564,1.58474 -2.807755,1.58474 -1.868965,0 -3.16949,-1.29191 -1.291912,-1.30053 -1.291912,-3.06614 0,-1.78284 1.291912,-3.07475 1.300525,-1.29191 3.16949,-1.29191 1.886191,0 2.807755,1.56752 v -0.92156 h 1.558907 z m -1.558907,-3.53122 v -1.25746 q -0.163642,-0.85266 -0.78376,-1.47278 -0.869887,-0.8785 -2.023995,-0.8785 -1.16272,0 -2.015382,0.86127 -0.852662,0.86128 -0.852662,2.12735 0,1.25746 0.852662,2.11012 0.852662,0.85267 2.015382,0.85267 1.154108,0 2.023995,-0.86989 0.620118,-0.62012 0.78376,-1.47278 z"/><path style="font-style:normal;font-variant:normal;font-weight:700;font-stretch:normal;font-family:'Champagne &amp; Limousines';-inkscape-font-specification:'Champagne &amp; Limousines Bold';letter-spacing:.00264583px;fill:#ffb300" id="path66" d="m 79.44193,292.36977 q 0.473701,0 0.78376,0.31006 0.318672,0.30145 0.318672,0.68902 0,0.38757 -0.318672,0.69763 -0.310059,0.30145 -0.78376,0.30145 -0.490926,0 -0.800985,-0.30145 -0.310059,-0.31006 -0.310059,-0.69763 0,-0.38757 0.310059,-0.68902 0.310059,-0.31006 0.800985,-0.31006 z"/></g></g></svg>