<svg xmlns="http://www.w3.org/2000/svg" xmlns:xlink="http://www.w3.org/1999/xlink" id="Layer_1" x="0" y="0" version="1.1" viewBox="0 0 792 612" xml:space="preserve" style="enable-background:new 0 0 792 612"><style type="text/css">.st0{fill:#d71920}.st1{fill:#fff}</style><switch><g><g><path d="M331.69,328.58h19.9v4.08h-7.32v20.49h-5.27v-20.49h-7.31V328.58z"/><path d="M361.94,332.66h6.51c2.3,0.03,3.67,0.95,3.67,3.11c0,2.17-1.36,3.32-3.67,3.35h-6.51V332.66z M361.94,343.4h5.57 c0,0,3.45,7.57,3.89,9.75h6.49l-4.98-10.1c3.51-0.91,4.42-5.1,4.42-8.28c0-4.99-5.56-6.35-10.23-6.19h-10.43v24.57h5.27V343.4z"/><path d="M384.42,328.58h17.62v4.08H389.7v5.78h11.36v4.08H389.7v6.55h12.72v4.08h-18V328.58z"/><path d="M423.61,353.16l-9.02-16.34l-0.07,0.07v16.27h-4.93v-24.57h6.54l8.97,16.06l0.07-0.07v-15.99h4.93v24.57H423.61z"/><path d="M443.02,332.86h2.73c6.26-0.07,7.18,4.1,7.18,8.01c0,3.92-0.92,8.28-7.18,8.2h-2.73V332.86z M437.75,353.16h8.37 c7.66,0.07,12.42-3.74,12.42-12.29c0-8.54-4.76-12.35-12.42-12.29h-8.37V353.16z"/><path d="M348.16,373.35h-2.55v-10.74l-2.69,10.74h-2.65l-2.68-10.74l-0.04,10.74H335v-13.64h4.12l2.45,9.29l2.46-9.29h4.13 V373.35z"/><path d="M368.94,373.35h-2.75v-13.64h2.75V373.35z"/><path d="M423.14,364.55c-0.17,0.37-0.46,0.62-0.88,0.76c-0.22,0.08-0.48,0.12-0.78,0.13c-0.32,0.02-0.78,0.04-1.37,0.04 c-0.08,0-0.18,0-0.32,0h-2.04v-3.46h2.15c0.99,0,1.62,0.01,1.9,0.03c0.29,0.02,0.55,0.11,0.8,0.26c0.26,0.16,0.44,0.34,0.54,0.57 c0.11,0.24,0.16,0.51,0.16,0.82C423.3,364.03,423.25,364.31,423.14,364.55z M423.38,367.68c0,0,0.62-0.15,0.85-0.25 c0.66-0.27,1.18-0.76,1.53-1.35c0.38-0.61,0.47-1.67,0.47-2.43c0-0.72-0.27-1.51-0.62-2.13c-0.41-0.71-0.97-1.2-1.7-1.47 c-0.34-0.12-0.66-0.19-0.95-0.23c-0.52-0.08-1.25-0.11-2.17-0.11H415v13.64h2.75v-5.38l2.62-0.03l2.91,5.41h3.3L423.38,367.68z"/><path d="M450.43,370.34c-0.64,0.58-1.45,0.88-2.42,0.88c-0.77,0-1.44-0.19-1.99-0.55c-0.45-0.29-0.81-0.68-1.09-1.16 c-0.21-0.37-0.37-0.74-0.47-1.13c-0.14-0.52-0.21-1.13-0.21-1.84c0-1.27,0.24-2.31,0.72-3.11c0.64-1.05,1.65-1.58,3.05-1.58 c1.48,0,2.52,0.58,3.15,1.75c0.41,0.76,0.61,1.72,0.61,2.9C451.77,368.25,451.32,369.53,450.43,370.34z M452.97,361.52 c-1.17-1.36-2.83-2.04-4.98-2.04c-2.11,0-3.74,0.63-4.88,1.9c-1.14,1.27-1.72,3.01-1.72,5.22c0,1.88,0.46,3.43,1.4,4.67 c1.15,1.54,2.9,2.31,5.23,2.31c2.24,0,3.94-0.73,5.09-2.17c0.99-1.25,1.49-2.86,1.49-4.86 C454.61,364.47,454.06,362.79,452.97,361.52z"/><path d="M395.62,364.19c-0.22-0.81-0.66-2.34-3-2.34c-1.36,0-3.36,0.91-3.36,4.74c0,2.44,0.96,4.62,3.36,4.62 c1.57,0,2.66-0.89,3-2.55h2.83c-0.56,2.94-2.49,4.99-5.88,4.99c-3.6,0-6.18-2.42-6.18-7.1c0-4.74,2.73-7.14,6.22-7.14 c4.05,0,5.7,2.78,5.85,4.78H395.62z"/></g><path d="M459.14,354.71h-1.47v3.91h-0.58v-3.91h-1.46v-0.53h3.51V354.71z"/><path d="M463.96,358.62h-0.56v-3.71l-1.29,3.71h-0.53l-1.27-3.77l-0.02,3.77h-0.56v-4.43h0.88l1.04,3.14 c0.01,0.01,0.04,0.13,0.12,0.36c0.05,0.14,0.08,0.24,0.08,0.29l0.25-0.71l1.06-3.08h0.78V358.62z"/><circle cx="395.11" cy="249.36" r="63.15" class="st0"/><g><path d="M367.29,249.06c-9.16,17.94-7.95,23.64-6.37,28.08c4.25,11.96,27.24,8.6,49.89-9.09 c22.65-17.69,33.02-42.26,23.16-54.87c-8.57-10.97-29.92-9.02-50.07,3.25c25.15-16.09,51.6-19.07,61.87-5.92 c11.55,14.78-1.59,44.34-29.35,66.03c-27.76,21.69-59.63,27.29-71.18,12.51c-7.26-9.3-5.5-24.37,4.26-39.73h-7.38l1.75-4.08 c0,0,13.24-2.67,26.58-14.79c0.03-0.03,5.37-0.04,5.37-0.04l-6.65,14.37h10.92l-2.07,4.33L367.29,249.06z" class="st1"/></g></g></switch></svg>