<svg xmlns="http://www.w3.org/2000/svg" xmlns:xlink="http://www.w3.org/1999/xlink" width="150" height="100" version="1.1" viewBox="0 0 150 100"><title>zafin_logo</title><desc>Created with Sketch.</desc><g id="Welcome" fill="none" fill-rule="evenodd" stroke="none" stroke-width="1"><g id="Homepage-UI" fill-rule="nonzero" transform="translate(-211.000000, -70.000000)"><g id="zafin_logo" transform="translate(211.000000, 70.000000)"><g id="Group-9"><g id="Fill-1-Clipped" fill="#383838" transform="translate(61.764706, 41.772152)"><polyline id="Fill-1" points=".032 21.985 9.988 4.285 0 4.285 0 .342 15.15 .342 15.121 4.27 5.189 21.987 15.114 21.987 15.114 25.791 .026 25.791 .032 21.985"/></g><g id="Fill-3-Clipped" fill="#383838" transform="translate(79.411765, 41.772152)"><path id="Fill-3" d="M8.15546221,16.0618489 L13.1728888,16.0618489 L12.0820361,11.7460122 C11.2823392,8.63734614 11.027552,7.0645111 10.7731782,5.45508947 L10.7004408,5.45508947 C10.446067,7.10089071 10.1551178,8.71052002 9.31905222,11.7460122 L8.15546221,16.0618489 Z M8.55551727,0.480890109 L13.2092575,0.480890109 L20.3716076,25.7911392 L15.6451302,25.7911392 L14.0453231,19.5365954 L7.21029066,19.5365954 L5.53795292,25.7911392 L1.06584928,25.7911392 L8.55551727,0.480890109 L8.55551727,0.480890109 Z"/></g><g id="Fill-4-Clipped" fill="#383838" transform="translate(103.361345, 41.772152)"><polyline id="Fill-4" points=".712 .481 13.582 .481 13.582 4.248 5.075 4.248 5.075 10.722 11.873 10.722 11.873 14.416 5.111 14.416 5.111 25.791 .712 25.791 .712 .481"/></g><g id="Fill-5-Clipped" fill="#383838" transform="translate(121.008403, 41.772152)"><polygon id="Fill-5" points="1.027 25.779 5.462 25.779 5.462 .481 1.027 .481"/></g><g id="Fill-6-Clipped" fill="#383838" transform="translate(133.613445, 41.772152)"><path id="Fill-6" d="M0.0915413753,0.480890109 L4.34543293,0.480890109 L10.4532996,13.28226 C11.3986774,15.3305206 12.23495,17.5978889 12.7800663,19.3172801 L12.8166415,19.3172801 C12.634798,17.7078585 12.3438492,14.8912656 12.3438492,12.367787 L12.3438492,0.480890109 L16.379322,0.480890109 L16.379322,25.7911392 L11.9076321,25.7911392 L6.23598323,13.7210983 C4.85438758,10.8317476 4.27269607,9.00280224 3.69100455,7.21065188 L3.61826702,7.21065188 C3.79990375,8.71052002 4.09085256,11.6362504 4.09085256,14.6721586 L4.09085256,25.7911392 L0.0915413753,25.7911392 L0.0915413753,0.480890109"/></g><g id="Fill-7-Clipped" fill="#383838" transform="translate(0.000000, 65.822785)"><polyline id="Fill-7" points="16.888 33.665 .425 17.103 16.888 .541 33.351 17.103 16.888 33.665"/></g><g id="Fill-8-Clipped" fill="#D6BF6F"><polyline id="Fill-8" points=".425 16.678 16.888 .117 33.351 16.678 33.351 49.802 .425 16.678"/></g></g><polyline id="Fill-10" fill="#959595" points="33.088 49.842 16.544 33.228 0 49.842 0 83.07 16.544 66.455 16.544 66.456 33.088 49.842"/></g></g></g></svg>